<svg width="96" height="99" viewBox="0 0 96 99" fill="none" xmlns="http://www.w3.org/2000/svg">
<g clip-path="url(#clip0_3398_805)">
<path d="M51.884 68.8555C51.3007 68.8555 50.7173 68.7388 50.1923 68.3888L30.884 57.6555C29.8923 57.1305 29.2507 56.1388 29.0757 54.9721L25.5757 24.8721C25.4007 23.2388 26.334 21.7221 27.8507 21.1971L50.7173 13.0305C51.1257 12.9138 51.4757 12.8555 51.884 12.8555C52.2923 12.8555 52.7007 12.9138 53.0507 13.0305L75.859 21.1388C77.3757 21.6638 78.3673 23.2388 78.134 24.8138L74.634 54.9721C74.5173 56.0805 73.8173 57.0721 72.8257 57.6555L53.5173 68.3888C52.9923 68.6805 52.409 68.8555 51.8257 68.8555H51.884Z" fill="#F8F9FA"/>
<path d="M51.8708 16.3555L29.0625 24.4638L32.5625 54.6221L51.8708 65.3555L71.1792 54.6221L74.6792 24.4638L51.8708 16.3555Z" fill="#DD0031"/>
<path d="M51.8672 16.3555V21.7805V46.5721V65.3555L71.1755 54.6221L74.6755 24.4638L51.8672 16.3555Z" fill="#C3002F"/>
<path d="M51.874 21.7852L37.6406 53.7518H42.949L45.8073 46.5768H57.8823L60.7406 53.7518H66.049L51.874 21.7852ZM56.0156 42.2018H47.674L51.8156 32.1685L55.9573 42.2018H56.0156Z" fill="#F8F9FA"/>
</g>
<path d="M15.9238 93.8555L20.0998 81.9755H22.5118L26.6878 93.8555H24.9058L21.4138 83.3615H21.1978L17.7058 93.8555H15.9238ZM17.9038 91.1915V89.9315H24.9058V91.1915H17.9038ZM28.6007 93.8555V88.0775V84.5495H30.0767L29.9147 87.5015H30.2207C30.3887 86.7695 30.6107 86.1695 30.8867 85.7015C31.1747 85.2335 31.5347 84.8855 31.9667 84.6575C32.3987 84.4295 32.9027 84.3155 33.4787 84.3155C34.5107 84.3155 35.2907 84.6875 35.8187 85.4315C36.3587 86.1635 36.6287 87.2615 36.6287 88.7255V93.8555H34.9727V88.8695C34.9727 87.8135 34.8047 87.0335 34.4687 86.5295C34.1447 86.0255 33.6647 85.7735 33.0287 85.7735C32.4527 85.7735 31.9607 85.9535 31.5527 86.3135C31.1567 86.6735 30.8447 87.1475 30.6167 87.7355C30.3887 88.3235 30.2627 88.9595 30.2387 89.6435V93.8555H28.6007ZM42.7974 97.0055C41.8134 97.0055 41.0034 96.9275 40.3674 96.7715C39.7434 96.6275 39.2814 96.3995 38.9814 96.0875C38.6814 95.7875 38.5314 95.4095 38.5314 94.9535C38.5314 94.4015 38.7474 93.9455 39.1794 93.5855C39.6114 93.2255 40.2654 92.9855 41.1414 92.8655V92.5415C40.5054 92.5415 40.0254 92.4635 39.7014 92.3075C39.3774 92.1515 39.2154 91.9175 39.2154 91.6055C39.2154 91.2815 39.3774 91.0115 39.7014 90.7955C40.0254 90.5675 40.5534 90.3575 41.2854 90.1655V89.8235C40.5534 89.8115 39.9954 89.5955 39.6114 89.1755C39.2274 88.7435 39.0354 88.1855 39.0354 87.5015C39.0354 86.8895 39.1974 86.3615 39.5214 85.9175C39.8574 85.4615 40.3374 85.1135 40.9614 84.8735C41.5974 84.6215 42.3534 84.4955 43.2294 84.4955H47.6214V85.8815L44.7414 85.4315V85.7735C45.4374 85.9175 45.9714 86.1635 46.3434 86.5115C46.7154 86.8475 46.9014 87.3035 46.9014 87.8795C46.9014 88.3955 46.7514 88.8455 46.4514 89.2295C46.1514 89.6135 45.7074 89.9135 45.1194 90.1295C44.5434 90.3335 43.8294 90.4355 42.9774 90.4355C42.8094 90.4355 42.6294 90.4295 42.4374 90.4175C42.2574 90.3935 42.0174 90.3575 41.7174 90.3095C41.3934 90.5135 41.1294 90.6995 40.9254 90.8675C40.7334 91.0355 40.6374 91.1855 40.6374 91.3175C40.6374 91.4495 40.7274 91.5575 40.9074 91.6415C41.0994 91.7135 41.3274 91.7615 41.5914 91.7855C41.8554 91.8095 42.1014 91.8215 42.3294 91.8215H44.4354C44.6754 91.8215 44.9754 91.8455 45.3354 91.8935C45.7074 91.9415 46.0734 92.0435 46.4334 92.1995C46.8054 92.3555 47.1174 92.5955 47.3694 92.9195C47.6214 93.2435 47.7474 93.6935 47.7474 94.2695C47.7474 94.9175 47.5554 95.4455 47.1714 95.8535C46.7874 96.2615 46.2294 96.5555 45.4974 96.7355C44.7654 96.9155 43.8654 97.0055 42.7974 97.0055ZM42.8334 95.6555C43.6374 95.6555 44.2854 95.6015 44.7774 95.4935C45.2814 95.3975 45.6474 95.2415 45.8754 95.0255C46.1154 94.8095 46.2354 94.5335 46.2354 94.1975C46.2354 93.8855 46.1514 93.6455 45.9834 93.4775C45.8274 93.2975 45.6294 93.1715 45.3894 93.0995C45.1494 93.0275 44.9094 92.9855 44.6694 92.9735C44.4294 92.9495 44.2254 92.9375 44.0574 92.9375H41.9514C41.2554 93.0935 40.7754 93.3095 40.5114 93.5855C40.2474 93.8615 40.1154 94.1555 40.1154 94.4675C40.1154 94.8035 40.2354 95.0555 40.4754 95.2235C40.7154 95.3915 41.0394 95.5055 41.4474 95.5655C41.8674 95.6255 42.3294 95.6555 42.8334 95.6555ZM43.0494 89.3735C43.8054 89.3735 44.3754 89.2175 44.7594 88.9055C45.1434 88.5935 45.3354 88.1735 45.3354 87.6455C45.3354 87.0815 45.1374 86.6195 44.7414 86.2595C44.3574 85.8875 43.7754 85.7015 42.9954 85.7015C42.2394 85.7015 41.6574 85.8755 41.2494 86.2235C40.8534 86.5715 40.6554 87.0215 40.6554 87.5735C40.6554 87.9335 40.7454 88.2515 40.9254 88.5275C41.1174 88.7915 41.3874 89.0015 41.7354 89.1575C42.0954 89.3015 42.5334 89.3735 43.0494 89.3735ZM52.7879 94.0895C51.7559 94.0895 50.9759 93.7295 50.4479 93.0095C49.9199 92.2895 49.6559 91.2155 49.6559 89.7875V84.5495H51.3119V89.6435C51.3119 90.6515 51.4679 91.4015 51.7799 91.8935C52.0919 92.3855 52.5839 92.6315 53.2559 92.6315C53.6279 92.6315 53.9579 92.5415 54.2459 92.3615C54.5459 92.1815 54.8099 91.9235 55.0379 91.5875C55.2659 91.2515 55.4519 90.8555 55.5959 90.3995C55.7399 89.9315 55.8359 89.4275 55.8839 88.8875V84.5495H57.5219V89.9675V93.8555H56.0639L56.2079 90.8675H55.9379C55.7819 91.6115 55.5599 92.2235 55.2719 92.7035C54.9959 93.1715 54.6479 93.5195 54.2279 93.7475C53.8079 93.9755 53.3279 94.0895 52.7879 94.0895ZM60.3644 93.8555V81.2555H62.0024V93.8555H60.3644ZM66.9712 94.0895C66.4672 94.0895 66.0112 93.9935 65.6032 93.8015C65.1952 93.5975 64.8712 93.3035 64.6312 92.9195C64.3912 92.5235 64.2712 92.0255 64.2712 91.4255C64.2712 90.9815 64.3492 90.5915 64.5052 90.2555C64.6732 89.9195 64.9252 89.6315 65.2612 89.3915C65.6092 89.1515 66.0532 88.9535 66.5932 88.7975C67.1332 88.6415 67.7932 88.5095 68.5732 88.4015C69.0172 88.3415 69.3772 88.2815 69.6532 88.2215C69.9412 88.1615 70.1512 88.0655 70.2832 87.9335C70.4152 87.7895 70.4812 87.5795 70.4812 87.3035C70.4812 86.8475 70.3252 86.4635 70.0132 86.1515C69.7012 85.8395 69.2092 85.6835 68.5372 85.6835C68.1892 85.6835 67.8352 85.7435 67.4752 85.8635C67.1152 85.9835 66.7972 86.1875 66.5212 86.4755C66.2572 86.7515 66.0892 87.1415 66.0172 87.6455L64.5052 87.1415C64.6012 86.7095 64.7572 86.3195 64.9732 85.9715C65.2012 85.6235 65.4892 85.3295 65.8372 85.0895C66.1852 84.8375 66.5872 84.6455 67.0432 84.5135C67.5112 84.3815 68.0272 84.3155 68.5912 84.3155C69.3712 84.3155 70.0192 84.4475 70.5352 84.7115C71.0632 84.9755 71.4532 85.3835 71.7052 85.9355C71.9692 86.4755 72.1012 87.1715 72.1012 88.0235V90.0935C72.1012 90.4655 72.1072 90.8735 72.1192 91.3175C72.1432 91.7495 72.1732 92.1875 72.2092 92.6315C72.2452 93.0635 72.2812 93.4715 72.3172 93.8555H70.8052C70.7692 93.4715 70.7332 93.0875 70.6972 92.7035C70.6732 92.3195 70.6552 91.9355 70.6432 91.5515H70.4092C70.2292 91.9955 69.9892 92.4095 69.6892 92.7935C69.3892 93.1775 69.0112 93.4895 68.5552 93.7295C68.1112 93.9695 67.5832 94.0895 66.9712 94.0895ZM67.4572 92.7575C67.7212 92.7575 67.9852 92.7155 68.2492 92.6315C68.5252 92.5475 68.7952 92.4095 69.0592 92.2175C69.3352 92.0255 69.5932 91.7795 69.8332 91.4795C70.0852 91.1795 70.3072 90.8195 70.4992 90.3995V88.5995L70.9672 88.6895C70.7752 88.8815 70.5172 89.0255 70.1932 89.1215C69.8812 89.2175 69.5332 89.2955 69.1492 89.3555C68.7652 89.4155 68.3812 89.4815 67.9972 89.5535C67.6132 89.6135 67.2592 89.7095 66.9352 89.8415C66.6232 89.9615 66.3712 90.1355 66.1792 90.3635C65.9872 90.5915 65.8912 90.9035 65.8912 91.2995C65.8912 91.7795 66.0352 92.1455 66.3232 92.3975C66.6112 92.6375 66.9892 92.7575 67.4572 92.7575ZM74.8488 93.8555V88.8155V84.5495H76.3248L76.1808 87.7895H76.4868C76.5948 87.0815 76.7628 86.4695 76.9908 85.9535C77.2188 85.4375 77.5188 85.0355 77.8908 84.7475C78.2748 84.4595 78.7488 84.3155 79.3128 84.3155C79.4328 84.3155 79.5708 84.3275 79.7268 84.3515C79.8828 84.3635 80.0628 84.4055 80.2668 84.4775L80.1768 86.1875C79.9968 86.1155 79.8168 86.0675 79.6368 86.0435C79.4568 86.0075 79.2828 85.9895 79.1148 85.9895C78.6468 85.9895 78.2388 86.1395 77.8908 86.4395C77.5548 86.7395 77.2728 87.1475 77.0448 87.6635C76.8168 88.1675 76.6308 88.7375 76.4868 89.3735V93.8555H74.8488Z" fill="#F8F9FA"/>
<defs>
<clipPath id="clip0_3398_805">
<rect width="56" height="56" fill="white" transform="translate(24 12.8555)"/>
</clipPath>
</defs>
</svg>
