<svg width="96" height="99" viewBox="0 0 96 99" fill="none" xmlns="http://www.w3.org/2000/svg">
<g clip-path="url(#clip0_3398_814)">
<path d="M76.0673 44.8221C76.0148 44.7755 75.9623 44.7288 75.9098 44.6821C76.1315 43.3171 76.2365 42.0746 76.2365 40.873C76.2365 39.5488 76.0965 38.2713 75.9098 37.093C76.9598 36.4163 77.3565 35.4188 77.4907 35.0688L77.5548 34.923C77.7998 34.363 78.4882 32.8055 77.8232 31.038C77.6248 30.2155 77.234 29.6321 76.9948 29.3055C76.7265 28.693 76.4115 28.1855 76.149 27.7596C75.9973 27.5088 75.8515 27.2755 75.7465 27.0538C75.4782 26.5171 75.1865 26.033 74.9357 25.6071C74.7257 25.2513 74.5215 24.913 74.3932 24.6621C73.6523 23.1163 72.5323 22.0546 71.0448 21.4888C70.4032 21.2496 69.7498 21.1271 69.114 21.1271C68.6065 21.1271 68.1048 21.203 67.5857 21.3663C67.4107 21.4246 67.2298 21.483 67.0548 21.5413C65.1123 19.9721 62.9948 18.7355 60.7373 17.843C60.6907 17.6038 60.6323 17.3646 60.5682 17.108C60.1773 15.6263 59.3082 14.4538 58.1123 13.8005C57.3307 13.3513 56.2632 12.8555 54.8223 12.8555C53.8248 12.8671 52.8273 12.8788 51.824 12.8788C50.8207 12.8788 49.829 12.873 48.779 12.8555C47.8982 12.8555 47.2332 13.0713 46.8248 13.1996L46.749 13.223C44.7307 13.923 43.354 15.5096 42.9748 17.6038C42.9632 17.6738 42.9515 17.7438 42.9457 17.8138C40.6765 18.718 38.5532 19.9546 36.6048 21.5063C36.424 21.4421 36.2432 21.3838 36.0623 21.3313C35.5723 21.1855 35.059 21.1096 34.534 21.1096C32.7257 21.1096 30.9698 22.0196 29.9257 23.5363C29.6865 23.8921 29.5232 24.2188 29.4007 24.458C29.3657 24.528 29.3365 24.5921 29.3248 24.6155L29.2898 24.668C28.9165 25.2221 28.6132 25.7705 28.3448 26.2546C28.2107 26.4938 28.0823 26.7271 27.9365 26.9721C27.7207 27.3396 27.5048 27.713 27.2948 28.0863C27.009 28.588 26.7232 29.0955 26.4198 29.5796L26.3848 29.6438C25.8773 30.5013 25.6848 31.4113 25.6032 32.0646C25.4107 33.8088 26.134 35.553 27.5923 36.848C27.6507 36.9005 27.709 36.953 27.7673 37.0055C27.569 38.2421 27.4232 39.4905 27.4232 40.803C27.4232 42.1155 27.5632 43.4046 27.7498 44.583C26.6998 45.2596 26.3032 46.2571 26.169 46.6071L26.1048 46.753C25.8598 47.313 25.1715 48.8705 25.8365 50.638C26.0348 51.4605 26.4257 52.0438 26.6648 52.3705C26.9332 52.983 27.2482 53.4905 27.5048 53.9163C27.6565 54.1671 27.8023 54.4005 27.9073 54.6221C28.1757 55.1588 28.4673 55.643 28.7182 56.0746C28.9282 56.4305 29.1323 56.7688 29.2607 57.0196C30.0015 58.5655 31.1215 59.633 32.609 60.193C33.2507 60.4321 33.904 60.5546 34.5398 60.5546C35.0473 60.5546 35.549 60.4788 36.0682 60.3155C36.2432 60.2571 36.424 60.1988 36.599 60.1405C38.5532 61.7271 40.6765 62.9696 42.9398 63.8505C42.9748 64.0313 43.0098 64.2121 43.0448 64.3988C43.3482 65.9388 44.2523 67.2163 45.5357 67.9163C46.3173 68.3596 47.3848 68.8555 48.8198 68.8555C49.8173 68.8438 50.8148 68.8321 51.8182 68.8321C52.8215 68.8321 53.8132 68.838 54.8165 68.8555H54.869C55.7498 68.8555 56.4498 68.6338 56.8173 68.5171C58.789 67.8871 60.1715 66.388 60.6148 64.3871C60.6498 64.218 60.6848 64.0488 60.7198 63.8796C63.0123 62.9871 65.1182 61.7563 67.084 60.1638C67.2357 60.2163 67.399 60.2688 67.5623 60.3155C67.9415 60.4263 68.5307 60.578 69.2248 60.578C69.989 60.578 70.7123 60.403 71.3948 60.053L71.424 60.0413C72.649 59.5455 73.5007 58.7813 73.9673 57.7605C74.4457 57.0488 74.8307 56.3371 75.1748 55.6955C75.3673 55.3455 75.554 54.9896 75.7698 54.628C75.9448 54.3305 76.1198 54.0271 76.289 53.7296C76.604 53.1813 76.919 52.6388 77.2457 52.1021C77.6773 51.408 77.9457 50.603 78.0682 49.6113C78.2607 47.8671 77.5373 46.123 76.079 44.828L76.0673 44.8221Z" fill="#F8F9FA"/>
<path d="M45.9818 61.1847C42.7327 60.2572 39.8743 58.548 37.3777 56.1564C36.596 56.4364 35.7968 56.7164 34.986 56.9847C34.6068 57.1014 34.2335 57.0605 33.8368 56.9089C33.1427 56.6464 32.7168 56.1272 32.4135 55.4914C31.9935 54.6514 31.4568 53.8872 31.0368 53.0472C30.6577 52.2655 30.1093 51.5889 29.7885 50.778C29.631 50.3814 29.211 50.113 29.211 49.6114C28.8318 48.993 29.1993 48.4447 29.4152 47.9022C29.4735 47.7564 29.5435 47.5639 29.6777 47.5055C30.2027 47.2722 30.4593 46.7414 30.8968 46.4147C31.101 46.2689 31.3168 46.1055 31.5502 45.9305C31.2177 44.233 30.926 42.5414 30.926 40.803C30.926 39.0647 31.2293 37.4139 31.5502 35.763C30.9843 35.2322 30.4593 34.7189 29.911 34.2289C29.3452 33.7272 29.0127 33.1089 29.0827 32.4614C29.1235 32.1055 29.2285 31.7264 29.4035 31.4289C29.9402 30.5597 30.436 29.6439 30.9552 28.763C31.3752 28.0572 31.7368 27.3164 32.2035 26.628C32.4485 26.2722 32.5943 25.8639 32.8393 25.4905C33.3177 24.7964 34.2743 24.458 35.0618 24.6972C35.756 24.9014 36.4093 25.2105 37.121 25.3447C37.191 25.3622 37.2493 25.4614 37.3252 25.5372C39.8335 23.163 42.6918 21.4714 45.976 20.4797C46.1043 20.083 46.1335 19.6514 46.2968 19.243C46.4135 18.9339 46.3843 18.5489 46.4427 18.2105C46.6002 17.3239 47.1368 16.8105 47.9068 16.5422C48.181 16.4547 48.461 16.3672 48.7935 16.3672C50.8235 16.3964 52.8535 16.3964 54.8893 16.3672C55.4668 16.3672 55.9627 16.6005 56.4293 16.8689C56.8493 17.0905 57.0827 17.563 57.1993 18.0064C57.4035 18.8172 57.5202 19.6455 57.6777 20.4972C60.9443 21.4422 63.8027 23.1339 66.2993 25.5255C67.081 25.2455 67.8802 24.9655 68.691 24.6972C69.0702 24.5805 69.4435 24.6214 69.8402 24.773C70.5343 25.0355 70.9602 25.5547 71.2635 26.1905C71.6835 27.0305 72.2202 27.7947 72.6402 28.6347C73.0193 29.4164 73.5677 30.093 73.8885 30.9039C74.046 31.3005 74.466 31.5689 74.466 32.0705C74.8452 32.6889 74.4777 33.2372 74.2618 33.7797C74.2035 33.9255 74.1335 34.118 73.9993 34.1764C73.4743 34.4097 73.2177 34.9405 72.7802 35.2672C72.576 35.413 72.3602 35.5764 72.1268 35.7514C72.4593 37.4489 72.751 39.1405 72.751 40.8789C72.751 42.6172 72.4885 44.268 72.1268 45.9189C72.6927 46.4497 73.2177 46.963 73.766 47.453C74.3318 47.9547 74.6643 48.573 74.5943 49.2205C74.5535 49.5764 74.466 49.9555 74.2735 50.253C73.7485 51.1105 73.2585 51.9914 72.751 52.8605C72.1152 53.9339 71.5902 55.1005 70.8493 56.1155C70.721 56.6755 70.196 56.7222 69.8168 56.9264C69.4085 57.148 69.006 57.0897 68.5568 56.9555C67.8918 56.763 67.2502 56.4247 66.556 56.3372C66.486 56.3197 66.4277 56.2205 66.3518 56.1447C63.8435 58.548 60.9968 60.2572 57.6777 61.2139C57.5202 62.0072 57.3743 62.8355 57.1993 63.6464C57.0243 64.4397 56.5052 64.9414 55.7643 65.1805C55.4902 65.268 55.1985 65.3555 54.8777 65.3555C52.8477 65.3264 50.8177 65.3264 48.7818 65.3555C48.2043 65.3555 47.7085 65.1222 47.2418 64.8539C46.8218 64.6322 46.5768 64.1597 46.4893 63.7164C46.3318 62.8472 46.1685 62.0364 45.9935 61.1789L45.9818 61.1847ZM46.9268 48.1997C47.2185 48.0364 47.551 47.9372 47.5627 47.5814C47.5918 47.0505 47.6618 46.508 47.551 46.0064C47.3468 45.1489 46.9852 44.3264 46.7693 43.4689C46.6235 42.9264 46.3027 42.4072 46.3202 41.818C45.8535 40.6514 45.5677 39.4322 45.171 38.248C44.8502 37.2739 44.6168 36.2705 44.2727 35.3139C44.086 34.783 44.0393 34.1939 43.6952 33.7214C43.666 33.6747 43.6543 33.6455 43.6543 33.6455C43.2635 33.383 42.8552 33.4705 42.5052 33.4705C42.301 33.663 42.126 33.8264 41.9685 33.9722C41.9568 34.4447 41.6185 34.8122 41.6768 35.2672C41.1693 36.4164 40.9535 37.653 40.5277 38.8372C40.3118 39.4439 40.1777 40.0622 40.0027 40.6805C39.8452 41.2989 39.4952 41.8589 39.4952 42.5239C38.941 43.778 38.6668 45.1197 38.2643 46.4322C38.1652 46.7589 38.1068 47.068 38.3052 47.3772C38.3635 47.4647 38.3343 47.5989 38.3343 47.5814C38.5677 47.8322 38.7427 48.0072 38.8885 48.188H39.7577C39.9618 47.9255 40.166 47.6747 40.3527 47.4239C40.3118 46.5839 40.481 46.0239 40.8602 45.1255H45.1243C45.241 45.598 45.2993 46.053 45.4568 46.4789C45.5268 46.6539 45.6027 46.8347 45.5735 47.0097C45.5327 47.5522 45.7018 47.9839 46.3143 48.188C46.4602 48.2055 46.676 48.2055 46.921 48.2055L46.9268 48.1997ZM50.3218 48.1997C50.7127 48.1705 51.1618 48.2872 51.4827 47.9664C51.5993 47.8205 51.6985 47.6689 51.8443 47.4647V42.8972C52.906 42.8972 53.9502 42.8505 54.9768 42.9147C55.601 42.9439 56.1085 42.7514 56.6043 42.4422C56.8377 42.2964 57.0418 42.0747 57.2402 41.8647C57.7768 41.3339 58.0393 40.6864 58.051 39.9164V36.3055C58.051 36.1305 58.0102 35.938 57.9635 35.763C57.806 35.1272 57.4677 34.6547 57.0185 34.2464C56.4935 33.7622 55.8868 33.4647 55.1635 33.4647H50.2868C50.1293 33.6397 49.966 33.8205 49.7793 33.9955V47.6922C49.966 47.8555 50.141 48.0305 50.316 48.2055L50.3218 48.1997ZM60.7693 48.1997H63.7852C63.9602 48.0247 64.1352 47.8439 64.3102 47.6864V46.7997C64.0943 46.3855 63.756 46.1347 63.3243 46.0939V35.6289C63.6452 35.4655 63.9193 35.3197 64.2402 35.1447C64.281 34.7597 64.3102 34.363 64.3393 34.083C64.106 33.8205 63.9485 33.628 63.8143 33.4764H60.8568C60.6118 33.698 60.4368 33.8614 60.221 34.0655C60.2618 34.4214 60.3202 34.818 60.3668 35.1564C60.7168 35.3314 60.991 35.483 61.236 35.6114V46.1055C61.0902 46.1347 60.9327 46.1055 60.8743 46.1814C60.6702 46.3855 60.3202 46.4439 60.2502 46.788V47.6747C60.4252 47.8497 60.6002 48.0305 60.7752 48.2055L60.7693 48.1997Z" fill="#66C8FF"/>
<path d="M44.3585 42.8618C43.501 42.8909 42.6027 42.9084 41.7044 42.9376C41.6752 42.9376 41.6344 42.9959 41.5469 43.0718C41.5585 42.1559 42.0719 41.4209 42.1244 40.5809C42.5619 39.8459 42.6027 38.9768 42.8944 38.1484C42.9819 38.2359 43.1102 38.3234 43.1102 38.3993C43.1219 39.0351 43.4894 39.5776 43.606 40.1843C43.6935 40.5984 43.9269 40.9951 43.9852 41.4093C44.0435 41.9401 44.3935 42.3368 44.3644 42.8676L44.3585 42.8618Z" fill="#66C8FF"/>
<path d="M56.036 40.0034C55.9369 40.1667 55.8494 40.3301 55.7327 40.4759C55.5285 40.7092 55.266 40.8434 54.9335 40.8317C53.9185 40.8142 52.9035 40.8317 51.8594 40.8317V35.5234C52.921 35.5234 54.006 35.5059 55.0794 35.5234C55.5869 35.5409 56.0244 36.0717 56.036 36.6317V40.0092V40.0034Z" fill="#66C8FF"/>
</g>
<path d="M14.3302 93.8555V81.9755H18.4702C19.0702 81.9755 19.6162 82.0235 20.1082 82.1195C20.6122 82.2155 21.0562 82.3595 21.4402 82.5515C21.8362 82.7435 22.1662 82.9775 22.4302 83.2535C22.7062 83.5295 22.9102 83.8535 23.0422 84.2255C23.1862 84.5855 23.2582 84.9875 23.2582 85.4315C23.2582 85.8515 23.1922 86.2355 23.0602 86.5835C22.9402 86.9315 22.7542 87.2375 22.5022 87.5015C22.2502 87.7655 21.9382 87.9815 21.5662 88.1495C21.1942 88.3055 20.7622 88.4135 20.2702 88.4735V88.7075C20.7022 88.7555 21.0802 88.8695 21.4042 89.0495C21.7282 89.2295 22.0042 89.4935 22.2322 89.8415C22.4602 90.1775 22.6582 90.6275 22.8262 91.1915L23.5822 93.8555H21.8002L21.1882 91.4255C21.0802 90.9335 20.8942 90.5375 20.6302 90.2375C20.3782 89.9375 20.0602 89.7155 19.6762 89.5715C19.2922 89.4275 18.8422 89.3555 18.3262 89.3555H15.9862V93.8555H14.3302ZM15.9862 88.0055H18.3262C19.3942 88.0055 20.1982 87.8135 20.7382 87.4295C21.2902 87.0455 21.5662 86.4575 21.5662 85.6655C21.5662 84.8735 21.3022 84.2915 20.7742 83.9195C20.2582 83.5355 19.4542 83.3435 18.3622 83.3435H15.9862V88.0055ZM29.8545 94.0895C29.1225 94.0895 28.4745 93.9815 27.9105 93.7655C27.3585 93.5375 26.8905 93.2135 26.5065 92.7935C26.1225 92.3735 25.8345 91.8755 25.6425 91.2995C25.4505 90.7235 25.3545 90.0755 25.3545 89.3555C25.3545 88.6235 25.4505 87.9515 25.6425 87.3395C25.8345 86.7275 26.1165 86.1935 26.4885 85.7375C26.8605 85.2815 27.3165 84.9335 27.8565 84.6935C28.3965 84.4415 29.0145 84.3155 29.7105 84.3155C30.3225 84.3155 30.8805 84.4175 31.3845 84.6215C31.8885 84.8255 32.3145 85.1435 32.6625 85.5755C33.0225 85.9955 33.2925 86.5295 33.4725 87.1775C33.6525 87.8135 33.7245 88.5635 33.6885 89.4275L26.3805 89.4815V88.3655L32.6985 88.3115L32.1405 89.0675C32.2005 88.3115 32.1285 87.6875 31.9245 87.1955C31.7205 86.7035 31.4265 86.3315 31.0425 86.0795C30.6705 85.8275 30.2265 85.7015 29.7105 85.7015C29.1585 85.7015 28.6725 85.8455 28.2525 86.1335C27.8325 86.4215 27.5085 86.8355 27.2805 87.3755C27.0645 87.9155 26.9565 88.5695 26.9565 89.3375C26.9565 90.4415 27.2025 91.2875 27.6945 91.8755C28.1865 92.4515 28.9185 92.7395 29.8905 92.7395C30.2625 92.7395 30.5865 92.6975 30.8625 92.6135C31.1505 92.5175 31.3905 92.3915 31.5825 92.2355C31.7865 92.0675 31.9485 91.8755 32.0685 91.6595C32.2005 91.4435 32.3025 91.2095 32.3745 90.9575L33.8145 91.2995C33.7065 91.7315 33.5385 92.1215 33.3105 92.4695C33.0945 92.8055 32.8185 93.0935 32.4825 93.3335C32.1585 93.5735 31.7805 93.7595 31.3485 93.8915C30.9165 94.0235 30.4185 94.0895 29.8545 94.0895ZM39.6153 94.0895C38.9673 94.0895 38.3913 94.0175 37.8873 93.8735C37.3833 93.7415 36.9633 93.5495 36.6273 93.2975C36.2913 93.0335 36.0333 92.7215 35.8533 92.3615C35.6733 92.0015 35.5773 91.6055 35.5653 91.1735L36.9513 90.8135C36.9273 91.2095 37.0233 91.5575 37.2393 91.8575C37.4673 92.1455 37.7853 92.3675 38.1933 92.5235C38.6133 92.6795 39.1173 92.7575 39.7053 92.7575C40.4133 92.7575 40.9593 92.6375 41.3433 92.3975C41.7393 92.1575 41.9373 91.8275 41.9373 91.4075C41.9373 91.0715 41.8293 90.8135 41.6133 90.6335C41.3973 90.4415 41.0973 90.2915 40.7133 90.1835C40.3413 90.0635 39.8973 89.9555 39.3813 89.8595C38.9493 89.7635 38.5173 89.6555 38.0853 89.5355C37.6533 89.4155 37.2573 89.2595 36.8973 89.0675C36.5493 88.8635 36.2673 88.5995 36.0513 88.2755C35.8353 87.9515 35.7273 87.5495 35.7273 87.0695C35.7273 86.5055 35.8773 86.0195 36.1773 85.6115C36.4773 85.2035 36.9033 84.8855 37.4553 84.6575C38.0073 84.4295 38.6673 84.3155 39.4353 84.3155C40.2033 84.3155 40.8573 84.4355 41.3973 84.6755C41.9373 84.9035 42.3633 85.2275 42.6753 85.6475C42.9873 86.0675 43.1613 86.5595 43.1973 87.1235L41.7753 87.4835C41.7633 87.0875 41.6553 86.7515 41.4513 86.4755C41.2593 86.1995 40.9833 85.9955 40.6233 85.8635C40.2633 85.7195 39.8433 85.6475 39.3633 85.6475C38.7273 85.6475 38.2233 85.7675 37.8513 86.0075C37.4793 86.2475 37.2933 86.5775 37.2933 86.9975C37.2933 87.3095 37.4013 87.5615 37.6173 87.7535C37.8453 87.9455 38.1513 88.0955 38.5353 88.2035C38.9193 88.3115 39.3453 88.4195 39.8133 88.5275C40.2933 88.6235 40.7493 88.7315 41.1813 88.8515C41.6253 88.9715 42.0213 89.1275 42.3693 89.3195C42.7173 89.5115 42.9933 89.7695 43.1973 90.0935C43.4013 90.4055 43.5033 90.8075 43.5033 91.2995C43.5033 91.9115 43.3413 92.4275 43.0173 92.8475C42.6933 93.2555 42.2373 93.5675 41.6493 93.7835C41.0733 93.9875 40.3953 94.0895 39.6153 94.0895ZM48.6022 94.0355C47.7382 94.0355 47.0962 93.8015 46.6762 93.3335C46.2562 92.8655 46.0462 92.1515 46.0462 91.1915V85.9175H44.6422L44.6602 84.5495H45.5422C45.8422 84.5495 46.0582 84.4955 46.1902 84.3875C46.3342 84.2795 46.4182 84.0995 46.4422 83.8475L46.6222 82.4435H47.6302V84.5495H50.3122V85.9355H47.6302V91.1555C47.6302 91.6355 47.7382 91.9835 47.9542 92.1995C48.1822 92.4035 48.5062 92.5055 48.9262 92.5055C49.1542 92.5055 49.3882 92.4755 49.6282 92.4155C49.8802 92.3555 50.1262 92.2355 50.3662 92.0555V93.6935C50.0182 93.8255 49.6942 93.9155 49.3942 93.9635C49.1062 94.0115 48.8422 94.0355 48.6022 94.0355ZM50.8528 89.8235V88.3115H55.6408V89.8235H50.8528ZM56.5117 93.8555L60.6877 81.9755H63.0997L67.2757 93.8555H65.4937L62.0017 83.3615H61.7857L58.2937 93.8555H56.5117ZM58.4917 91.1915V89.9315H65.4937V91.1915H58.4917ZM69.1886 96.7715V89.2115V84.5495H70.6646L70.5746 86.9435H70.8446C70.9886 86.4155 71.1866 85.9595 71.4386 85.5755C71.7026 85.1795 72.0386 84.8735 72.4466 84.6575C72.8546 84.4295 73.3466 84.3155 73.9226 84.3155C74.7746 84.3155 75.4826 84.5315 76.0466 84.9635C76.6226 85.3835 77.0546 85.9655 77.3426 86.7095C77.6306 87.4415 77.7746 88.2755 77.7746 89.2115C77.7746 90.1475 77.6306 90.9815 77.3426 91.7135C77.0546 92.4455 76.6286 93.0275 76.0646 93.4595C75.5126 93.8795 74.8346 94.0895 74.0306 94.0895C73.3826 94.0895 72.8426 93.9575 72.4106 93.6935C71.9906 93.4175 71.6546 93.0575 71.4026 92.6135C71.1506 92.1695 70.9526 91.7075 70.8086 91.2275H70.5026C70.5746 91.5515 70.6346 91.8875 70.6826 92.2355C70.7306 92.5835 70.7666 92.9315 70.7906 93.2795C70.8266 93.6155 70.8446 93.9395 70.8446 94.2515V96.7715H69.1886ZM73.6166 92.6675C74.1446 92.6675 74.5886 92.5175 74.9486 92.2175C75.3086 91.9055 75.5846 91.4855 75.7766 90.9575C75.9686 90.4295 76.0646 89.8355 76.0646 89.1755C76.0646 88.4675 75.9626 87.8615 75.7586 87.3575C75.5666 86.8535 75.2906 86.4635 74.9306 86.1875C74.5706 85.8995 74.1326 85.7555 73.6166 85.7555C73.1726 85.7555 72.7766 85.8575 72.4286 86.0615C72.0926 86.2535 71.8046 86.5175 71.5646 86.8535C71.3246 87.1775 71.1386 87.5375 71.0066 87.9335C70.8866 88.3175 70.8266 88.7015 70.8266 89.0855V89.3015C70.8266 89.5415 70.8626 89.8115 70.9346 90.1115C71.0066 90.3995 71.1146 90.6935 71.2586 90.9935C71.4026 91.2935 71.5826 91.5695 71.7986 91.8215C72.0266 92.0735 72.2906 92.2775 72.5906 92.4335C72.8906 92.5895 73.2326 92.6675 73.6166 92.6675ZM80.1578 93.8555V84.5495H81.7958V93.8555H80.1578ZM80.9858 82.9295C80.6018 82.9295 80.3138 82.8515 80.1218 82.6955C79.9298 82.5395 79.8338 82.3055 79.8338 81.9935C79.8338 81.6815 79.9298 81.4475 80.1218 81.2915C80.3138 81.1355 80.5958 81.0575 80.9678 81.0575C81.3518 81.0575 81.6398 81.1355 81.8318 81.2915C82.0238 81.4475 82.1198 81.6815 82.1198 81.9935C82.1198 82.2935 82.0238 82.5275 81.8318 82.6955C81.6398 82.8515 81.3578 82.9295 80.9858 82.9295Z" fill="#F8F9FA"/>
<defs>
<clipPath id="clip0_3398_814">
<rect width="56" height="56" fill="white" transform="translate(24 12.8555)"/>
</clipPath>
</defs>
</svg>
