<svg width="96" height="99" viewBox="0 0 96 99" fill="none" xmlns="http://www.w3.org/2000/svg">
<g clip-path="url(#clip0_3398_796)">
<path d="M52.1417 68.8555C51.85 68.8555 51.5 68.8555 51.2083 68.7388L33.5917 63.8388C32.1917 63.4305 31.2 62.2055 31.025 60.8055L27.1167 16.7055C27.0583 15.7138 27.35 14.7805 27.9917 14.0221C28.6333 13.3221 29.5667 12.8555 30.5583 12.8555H73.7833C74.775 12.8555 75.7083 13.2638 76.35 14.0221C76.9917 14.7221 77.3417 15.7138 77.225 16.7055L73.3167 60.8055C73.2 62.2638 72.15 63.4888 70.75 63.8388L53.075 68.7388C52.7833 68.7971 52.4333 68.8555 52.1417 68.8555Z" fill="#F8F9FA"/>
<path d="M34.4708 60.4555L30.5625 16.3555H73.7875L69.8792 60.4555L52.2042 65.3555L34.5875 60.4555H34.4708Z" fill="#264DE4"/>
<path d="M66.4323 57.6599L69.8156 19.9766H52.1406V61.6266L66.4323 57.6599Z" fill="#2965F1"/>
<path d="M39.5307 36.2987L39.9974 41.7237H52.0724V36.2987H39.4724H39.5307ZM39.0641 30.757H52.1307V25.332H38.5391L39.0057 30.757H39.0641ZM52.1307 50.357L46.1224 48.7237L45.7141 44.407H40.2891L41.0474 52.9237L52.1307 56.0154V50.357Z" fill="#EBEBEB"/>
<path d="M52.1406 36.3102V41.7352H58.7906L58.149 48.7352L52.1406 50.3685V55.9685L63.224 52.8768V51.9435C63.2823 51.9435 64.5656 37.7102 64.5656 37.7102L64.6823 36.2518L65.674 25.2852H52.1406V30.7102H59.7823L59.3156 36.2518H52.199L52.1406 36.3102Z" fill="#F8F9FA"/>
</g>
<path d="M36.8952 94.0895C36.0432 94.0895 35.2752 93.9575 34.5912 93.6935C33.9192 93.4295 33.3492 93.0395 32.8812 92.5235C32.4132 92.0075 32.0532 91.3775 31.8012 90.6335C31.5612 89.8775 31.4412 89.0195 31.4412 88.0595C31.4412 87.0875 31.5672 86.2175 31.8192 85.4495C32.0712 84.6695 32.4312 84.0035 32.8992 83.4515C33.3672 82.8995 33.9312 82.4795 34.5912 82.1915C35.2512 81.8915 35.9892 81.7415 36.8052 81.7415C37.4292 81.7415 38.0052 81.8315 38.5332 82.0115C39.0612 82.1795 39.5172 82.4315 39.9012 82.7675C40.2972 83.0915 40.6032 83.4875 40.8192 83.9555C41.0352 84.4235 41.1492 84.9455 41.1612 85.5215L39.5952 85.9175C39.6072 85.3055 39.4812 84.8015 39.2172 84.4055C38.9532 83.9975 38.6052 83.6915 38.1732 83.4875C37.7412 83.2835 37.2732 83.1815 36.7692 83.1815C36.3012 83.1815 35.8452 83.2775 35.4012 83.4695C34.9692 83.6495 34.5852 83.9375 34.2492 84.3335C33.9132 84.7175 33.6432 85.2155 33.4392 85.8275C33.2472 86.4275 33.1512 87.1535 33.1512 88.0055C33.1512 89.0975 33.3072 89.9795 33.6192 90.6515C33.9432 91.3235 34.3932 91.8215 34.9692 92.1455C35.5452 92.4575 36.2112 92.6135 36.9672 92.6135C37.6992 92.6135 38.2872 92.4815 38.7312 92.2175C39.1752 91.9415 39.5052 91.5635 39.7212 91.0835C39.9372 90.5915 40.0632 90.0275 40.0992 89.3915L41.5752 89.6615C41.5632 90.2615 41.4672 90.8315 41.2872 91.3715C41.1072 91.9115 40.8312 92.3855 40.4592 92.7935C40.0872 93.2015 39.6072 93.5195 39.0192 93.7475C38.4312 93.9755 37.7232 94.0895 36.8952 94.0895ZM48.3359 94.0895C47.5439 94.0895 46.8479 94.0055 46.2479 93.8375C45.6599 93.6695 45.1619 93.4235 44.7539 93.0995C44.3579 92.7635 44.0639 92.3555 43.8719 91.8755C43.6799 91.3955 43.5959 90.8375 43.6199 90.2015L45.1139 89.8775C45.0659 90.5015 45.1679 91.0235 45.4199 91.4435C45.6719 91.8635 46.0559 92.1815 46.5719 92.3975C47.0879 92.6015 47.6939 92.7035 48.3899 92.7035C49.0619 92.7035 49.6319 92.6195 50.0999 92.4515C50.5679 92.2835 50.9159 92.0495 51.1439 91.7495C51.3839 91.4495 51.5039 91.1075 51.5039 90.7235C51.5039 90.2915 51.3659 89.9495 51.0899 89.6975C50.8139 89.4455 50.4419 89.2535 49.9739 89.1215C49.5179 88.9775 49.0079 88.8455 48.4439 88.7255C47.8919 88.6055 47.3399 88.4675 46.7879 88.3115C46.2359 88.1555 45.7379 87.9575 45.2939 87.7175C44.8619 87.4655 44.5079 87.1415 44.2319 86.7455C43.9679 86.3375 43.8359 85.8215 43.8359 85.1975C43.8359 84.4895 44.0099 83.8775 44.3579 83.3615C44.7179 82.8455 45.2219 82.4495 45.8699 82.1735C46.5179 81.8855 47.2799 81.7415 48.1559 81.7415C49.0199 81.7415 49.7879 81.8795 50.4599 82.1555C51.1439 82.4315 51.6839 82.8395 52.0799 83.3795C52.4759 83.9075 52.6859 84.5615 52.7099 85.3415L51.1619 85.7195C51.1619 85.2875 51.0839 84.9095 50.9279 84.5855C50.7839 84.2495 50.5799 83.9795 50.3159 83.7755C50.0519 83.5595 49.7339 83.3975 49.3619 83.2895C48.9899 83.1695 48.5819 83.1095 48.1379 83.1095C47.5979 83.1095 47.1239 83.1935 46.7159 83.3615C46.3079 83.5295 45.9899 83.7575 45.7619 84.0455C45.5339 84.3335 45.4199 84.6755 45.4199 85.0715C45.4199 85.5395 45.5819 85.9115 45.9059 86.1875C46.2419 86.4515 46.6739 86.6615 47.2019 86.8175C47.7299 86.9735 48.2939 87.1175 48.8939 87.2495C49.4099 87.3575 49.9139 87.4895 50.4059 87.6455C50.9099 87.7895 51.3659 87.9875 51.7739 88.2395C52.1819 88.4795 52.5059 88.7975 52.7459 89.1935C52.9859 89.5895 53.1059 90.0935 53.1059 90.7055C53.1059 91.3895 52.9259 91.9835 52.5659 92.4875C52.2179 92.9915 51.6899 93.3875 50.9819 93.6755C50.2739 93.9515 49.3919 94.0895 48.3359 94.0895ZM59.955 94.0895C59.163 94.0895 58.467 94.0055 57.867 93.8375C57.279 93.6695 56.781 93.4235 56.373 93.0995C55.977 92.7635 55.683 92.3555 55.491 91.8755C55.299 91.3955 55.215 90.8375 55.239 90.2015L56.733 89.8775C56.685 90.5015 56.787 91.0235 57.039 91.4435C57.291 91.8635 57.675 92.1815 58.191 92.3975C58.707 92.6015 59.313 92.7035 60.009 92.7035C60.681 92.7035 61.251 92.6195 61.719 92.4515C62.187 92.2835 62.535 92.0495 62.763 91.7495C63.003 91.4495 63.123 91.1075 63.123 90.7235C63.123 90.2915 62.985 89.9495 62.709 89.6975C62.433 89.4455 62.061 89.2535 61.593 89.1215C61.137 88.9775 60.627 88.8455 60.063 88.7255C59.511 88.6055 58.959 88.4675 58.407 88.3115C57.855 88.1555 57.357 87.9575 56.913 87.7175C56.481 87.4655 56.127 87.1415 55.851 86.7455C55.587 86.3375 55.455 85.8215 55.455 85.1975C55.455 84.4895 55.629 83.8775 55.977 83.3615C56.337 82.8455 56.841 82.4495 57.489 82.1735C58.137 81.8855 58.899 81.7415 59.775 81.7415C60.639 81.7415 61.407 81.8795 62.079 82.1555C62.763 82.4315 63.303 82.8395 63.699 83.3795C64.095 83.9075 64.305 84.5615 64.329 85.3415L62.781 85.7195C62.781 85.2875 62.703 84.9095 62.547 84.5855C62.403 84.2495 62.199 83.9795 61.935 83.7755C61.671 83.5595 61.353 83.3975 60.981 83.2895C60.609 83.1695 60.201 83.1095 59.757 83.1095C59.217 83.1095 58.743 83.1935 58.335 83.3615C57.927 83.5295 57.609 83.7575 57.381 84.0455C57.153 84.3335 57.039 84.6755 57.039 85.0715C57.039 85.5395 57.201 85.9115 57.525 86.1875C57.861 86.4515 58.293 86.6615 58.821 86.8175C59.349 86.9735 59.913 87.1175 60.513 87.2495C61.029 87.3575 61.533 87.4895 62.025 87.6455C62.529 87.7895 62.985 87.9875 63.393 88.2395C63.801 88.4795 64.125 88.7975 64.365 89.1935C64.605 89.5895 64.725 90.0935 64.725 90.7055C64.725 91.3895 64.545 91.9835 64.185 92.4875C63.837 92.9915 63.309 93.3875 62.601 93.6755C61.893 93.9515 61.011 94.0895 59.955 94.0895Z" fill="#F8F9FA"/>
<defs>
<clipPath id="clip0_3398_796">
<rect width="56" height="56" fill="white" transform="translate(24 12.8555)"/>
</clipPath>
</defs>
</svg>
