<svg width="96" height="99" viewBox="0 0 96 99" fill="none" xmlns="http://www.w3.org/2000/svg">
<g clip-path="url(#clip0_3398_808)">
<path d="M52.2709 68.733C51.1043 68.733 49.9434 68.4413 48.9518 67.8581L33.2368 59.0682L33.0034 58.9515C32.5951 58.7182 32.1868 58.4849 31.8951 58.1349C31.1368 57.26 30.8451 56.1576 31.0784 55.0494L37.0751 16.7576C37.3668 14.8386 38.8776 13.2638 40.8026 12.9138H40.8609C41.0943 12.9138 41.3859 12.8555 41.6193 12.8555C42.3193 12.8555 43.0193 13.0305 43.5968 13.3221C44.4718 13.7304 45.2243 14.4303 45.6909 15.2994L48.8351 21.2371C49.7101 20.3039 50.9293 19.7264 52.2126 19.7264C53.4959 19.7264 52.2126 19.7264 52.2709 19.7264C53.9568 19.7264 55.4734 20.718 56.2901 22.1703L58.6176 26.5915L61.0034 24.206C61.6451 23.5644 62.4034 23.1561 63.2143 22.9811C63.5643 22.9228 63.9143 22.8644 64.2643 22.8644C64.6143 22.8644 64.3809 22.8644 64.4393 22.8644C64.8476 22.8644 65.3143 22.9811 65.7226 23.0977C67.3501 23.6227 68.5751 25.0167 68.8668 26.7082L73.4634 55.2885C73.6968 56.5717 73.1718 57.8491 72.1218 58.6657C72.0634 58.6657 71.9468 58.7823 71.8884 58.8407C71.8301 58.8407 71.7718 58.899 71.6551 58.9573L55.4734 67.9806C54.4818 68.5638 53.3209 68.8555 52.1543 68.8555L52.2709 68.7388V68.733Z" fill="#F8F9FA"/>
<path d="M34.5625 55.8598L40.5592 17.3288C40.6175 16.8622 41.0258 16.4539 41.4925 16.3956C41.9592 16.3373 42.4258 16.5706 42.6592 16.9789L48.8892 28.5627L51.3917 23.8498C51.5667 23.4998 51.975 23.2665 52.3833 23.2665C52.7917 23.2665 53.2 23.4998 53.375 23.8498L70.1983 55.8073H34.6208L34.5625 55.8656V55.8598Z" fill="#FFA000"/>
<path d="M55.3467 40.8384L48.8833 28.5547L34.5625 55.7994L55.3467 40.7801V40.8384Z" fill="#F57C00"/>
<path d="M70.1403 55.8635L65.5436 27.3415C65.4853 26.9332 65.1936 26.5832 64.7853 26.4666C64.377 26.3499 63.9686 26.4666 63.677 26.7582L34.6328 55.8635L50.6978 64.8867C51.6895 65.47 52.9086 65.47 53.9586 64.8867L70.1986 55.8635H70.1403Z" fill="#FFCA28"/>
<path d="M65.477 27.342C65.4186 26.9337 65.127 26.5837 64.7186 26.467C64.3103 26.3504 63.902 26.467 63.6103 26.7587L57.847 32.5214L53.3086 23.9065C53.1336 23.5565 52.7253 23.3232 52.317 23.3232C51.9086 23.3232 51.5003 23.5565 51.3253 23.9065L48.8228 28.6193L42.5986 17.0414C42.3653 16.6331 41.8986 16.3998 41.432 16.4581C40.9653 16.5164 40.6153 16.9247 40.4986 17.3913L34.5078 55.9223L34.6828 56.039L63.6161 27.1086C63.9078 26.817 64.3745 26.7004 64.7245 26.817C65.0745 26.9337 65.4245 27.2836 65.4828 27.6919L70.0795 55.9806L65.4828 27.4003V27.342H65.477ZM34.6245 55.8057L40.5628 17.6246C40.6211 17.158 41.0295 16.7497 41.4961 16.6914C41.9628 16.6331 42.4295 16.8664 42.6628 17.2747L48.8928 28.8585L51.3953 24.1456C51.5703 23.7957 51.9786 23.5623 52.387 23.5623C52.7953 23.5623 53.2036 23.7957 53.3786 24.1456L57.8003 32.5856L34.6245 55.8057Z" fill="white" fill-opacity="0.4"/>
<path opacity="0.2" d="M53.8883 64.5896C52.8967 65.1729 51.6775 65.1729 50.6275 64.5896L34.5625 55.5664V55.7997L50.6275 64.8229C51.6192 65.4062 52.8383 65.4062 53.8883 64.8229L70.1283 55.7997V55.5664L53.8883 64.5896Z" fill="#A52714"/>
<path d="M65.4733 27.342C65.415 26.9337 65.1233 26.5837 64.715 26.467C64.3067 26.3504 63.8983 26.467 63.6067 26.7587L57.8433 32.5214L53.305 23.9065C53.13 23.5565 52.7217 23.3232 52.3133 23.3232C51.905 23.3232 51.4967 23.5565 51.3217 23.9065L48.8775 28.6193L42.6533 17.0414C42.42 16.6331 41.9533 16.3998 41.4867 16.4581C41.02 16.5164 40.67 16.9247 40.5533 17.3913L34.5625 55.864L50.5692 64.8872C51.5608 65.4705 52.78 65.4705 53.83 64.8872L70.0117 55.864L65.415 27.342H65.4733Z" fill="url(#paint0_linear_3398_808)"/>
</g>
<path d="M13.1789 93.8555V81.9755H14.8349V93.8555H13.1789ZM13.8269 88.7615V87.3395H20.6489V88.7615H13.8269ZM13.8269 83.4335V81.9755H21.4229V83.4335H13.8269ZM23.4068 93.8555V84.5495H25.0448V93.8555H23.4068ZM24.2348 82.9295C23.8508 82.9295 23.5628 82.8515 23.3708 82.6955C23.1788 82.5395 23.0828 82.3055 23.0828 81.9935C23.0828 81.6815 23.1788 81.4475 23.3708 81.2915C23.5628 81.1355 23.8448 81.0575 24.2168 81.0575C24.6008 81.0575 24.8888 81.1355 25.0808 81.2915C25.2728 81.4475 25.3688 81.6815 25.3688 81.9935C25.3688 82.2935 25.2728 82.5275 25.0808 82.6955C24.8888 82.8515 24.6068 82.9295 24.2348 82.9295ZM27.8888 93.8555V88.8155V84.5495H29.3648L29.2208 87.7895H29.5268C29.6348 87.0815 29.8028 86.4695 30.0308 85.9535C30.2588 85.4375 30.5588 85.0355 30.9308 84.7475C31.3148 84.4595 31.7888 84.3155 32.3528 84.3155C32.4728 84.3155 32.6108 84.3275 32.7668 84.3515C32.9228 84.3635 33.1028 84.4055 33.3068 84.4775L33.2168 86.1875C33.0368 86.1155 32.8568 86.0675 32.6768 86.0435C32.4968 86.0075 32.3228 85.9895 32.1548 85.9895C31.6868 85.9895 31.2788 86.1395 30.9308 86.4395C30.5948 86.7395 30.3128 87.1475 30.0848 87.6635C29.8568 88.1675 29.6708 88.7375 29.5268 89.3735V93.8555H27.8888ZM38.916 94.0895C38.184 94.0895 37.536 93.9815 36.972 93.7655C36.42 93.5375 35.952 93.2135 35.568 92.7935C35.184 92.3735 34.896 91.8755 34.704 91.2995C34.512 90.7235 34.416 90.0755 34.416 89.3555C34.416 88.6235 34.512 87.9515 34.704 87.3395C34.896 86.7275 35.178 86.1935 35.55 85.7375C35.922 85.2815 36.378 84.9335 36.918 84.6935C37.458 84.4415 38.076 84.3155 38.772 84.3155C39.384 84.3155 39.942 84.4175 40.446 84.6215C40.95 84.8255 41.376 85.1435 41.724 85.5755C42.084 85.9955 42.354 86.5295 42.534 87.1775C42.714 87.8135 42.786 88.5635 42.75 89.4275L35.442 89.4815V88.3655L41.76 88.3115L41.202 89.0675C41.262 88.3115 41.19 87.6875 40.986 87.1955C40.782 86.7035 40.488 86.3315 40.104 86.0795C39.732 85.8275 39.288 85.7015 38.772 85.7015C38.22 85.7015 37.734 85.8455 37.314 86.1335C36.894 86.4215 36.57 86.8355 36.342 87.3755C36.126 87.9155 36.018 88.5695 36.018 89.3375C36.018 90.4415 36.264 91.2875 36.756 91.8755C37.248 92.4515 37.98 92.7395 38.952 92.7395C39.324 92.7395 39.648 92.6975 39.924 92.6135C40.212 92.5175 40.452 92.3915 40.644 92.2355C40.848 92.0675 41.01 91.8755 41.13 91.6595C41.262 91.4435 41.364 91.2095 41.436 90.9575L42.876 91.2995C42.768 91.7315 42.6 92.1215 42.372 92.4695C42.156 92.8055 41.88 93.0935 41.544 93.3335C41.22 93.5735 40.842 93.7595 40.41 93.8915C39.978 94.0235 39.48 94.0895 38.916 94.0895ZM49.9042 94.0895C49.3042 94.0895 48.7882 93.9695 48.3562 93.7295C47.9362 93.4895 47.5942 93.1655 47.3302 92.7575C47.0782 92.3375 46.8862 91.8635 46.7542 91.3355H46.4662L46.5562 93.8555H45.0802V89.2655V81.2555H46.7362V84.1715C46.7362 84.4835 46.7182 84.8135 46.6822 85.1615C46.6582 85.4975 46.6162 85.8455 46.5562 86.2055C46.5082 86.5655 46.4542 86.9135 46.3942 87.2495H46.7182C46.8502 86.7455 47.0422 86.2715 47.2942 85.8275C47.5462 85.3835 47.8822 85.0235 48.3022 84.7475C48.7342 84.4715 49.2682 84.3335 49.9042 84.3335C50.6962 84.3335 51.3682 84.5435 51.9202 84.9635C52.4842 85.3715 52.9162 85.9415 53.2162 86.6735C53.5162 87.4055 53.6662 88.2575 53.6662 89.2295C53.6662 90.1655 53.5162 90.9995 53.2162 91.7315C52.9282 92.4635 52.5022 93.0395 51.9382 93.4595C51.3862 93.8795 50.7082 94.0895 49.9042 94.0895ZM49.5082 92.6495C50.0242 92.6495 50.4622 92.5115 50.8222 92.2355C51.1822 91.9595 51.4582 91.5635 51.6502 91.0475C51.8542 90.5315 51.9562 89.9315 51.9562 89.2475C51.9562 88.5755 51.8602 87.9815 51.6682 87.4655C51.4762 86.9375 51.2002 86.5235 50.8402 86.2235C50.4802 85.9115 50.0362 85.7555 49.5082 85.7555C49.1242 85.7555 48.7822 85.8335 48.4822 85.9895C48.1822 86.1335 47.9182 86.3315 47.6902 86.5835C47.4742 86.8355 47.2942 87.1115 47.1502 87.4115C47.0062 87.7115 46.8982 88.0115 46.8262 88.3115C46.7542 88.6115 46.7182 88.8875 46.7182 89.1395V89.3555C46.7182 89.7155 46.7782 90.0875 46.8982 90.4715C47.0302 90.8555 47.2162 91.2155 47.4562 91.5515C47.6962 91.8755 47.9902 92.1395 48.3382 92.3435C48.6862 92.5475 49.0762 92.6495 49.5082 92.6495ZM58.191 94.0895C57.687 94.0895 57.231 93.9935 56.823 93.8015C56.415 93.5975 56.091 93.3035 55.851 92.9195C55.611 92.5235 55.491 92.0255 55.491 91.4255C55.491 90.9815 55.569 90.5915 55.725 90.2555C55.893 89.9195 56.145 89.6315 56.481 89.3915C56.829 89.1515 57.273 88.9535 57.813 88.7975C58.353 88.6415 59.013 88.5095 59.793 88.4015C60.237 88.3415 60.597 88.2815 60.873 88.2215C61.161 88.1615 61.371 88.0655 61.503 87.9335C61.635 87.7895 61.701 87.5795 61.701 87.3035C61.701 86.8475 61.545 86.4635 61.233 86.1515C60.921 85.8395 60.429 85.6835 59.757 85.6835C59.409 85.6835 59.055 85.7435 58.695 85.8635C58.335 85.9835 58.017 86.1875 57.741 86.4755C57.477 86.7515 57.309 87.1415 57.237 87.6455L55.725 87.1415C55.821 86.7095 55.977 86.3195 56.193 85.9715C56.421 85.6235 56.709 85.3295 57.057 85.0895C57.405 84.8375 57.807 84.6455 58.263 84.5135C58.731 84.3815 59.247 84.3155 59.811 84.3155C60.591 84.3155 61.239 84.4475 61.755 84.7115C62.283 84.9755 62.673 85.3835 62.925 85.9355C63.189 86.4755 63.321 87.1715 63.321 88.0235V90.0935C63.321 90.4655 63.327 90.8735 63.339 91.3175C63.363 91.7495 63.393 92.1875 63.429 92.6315C63.465 93.0635 63.501 93.4715 63.537 93.8555H62.025C61.989 93.4715 61.953 93.0875 61.917 92.7035C61.893 92.3195 61.875 91.9355 61.863 91.5515H61.629C61.449 91.9955 61.209 92.4095 60.909 92.7935C60.609 93.1775 60.231 93.4895 59.775 93.7295C59.331 93.9695 58.803 94.0895 58.191 94.0895ZM58.677 92.7575C58.941 92.7575 59.205 92.7155 59.469 92.6315C59.745 92.5475 60.015 92.4095 60.279 92.2175C60.555 92.0255 60.813 91.7795 61.053 91.4795C61.305 91.1795 61.527 90.8195 61.719 90.3995V88.5995L62.187 88.6895C61.995 88.8815 61.737 89.0255 61.413 89.1215C61.101 89.2175 60.753 89.2955 60.369 89.3555C59.985 89.4155 59.601 89.4815 59.217 89.5535C58.833 89.6135 58.479 89.7095 58.155 89.8415C57.843 89.9615 57.591 90.1355 57.399 90.3635C57.207 90.5915 57.111 90.9035 57.111 91.2995C57.111 91.7795 57.255 92.1455 57.543 92.3975C57.831 92.6375 58.209 92.7575 58.677 92.7575ZM69.5069 94.0895C68.8589 94.0895 68.2829 94.0175 67.7789 93.8735C67.2749 93.7415 66.8549 93.5495 66.5189 93.2975C66.1829 93.0335 65.9249 92.7215 65.7449 92.3615C65.5649 92.0015 65.4689 91.6055 65.4569 91.1735L66.8429 90.8135C66.8189 91.2095 66.9149 91.5575 67.1309 91.8575C67.3589 92.1455 67.6769 92.3675 68.0849 92.5235C68.5049 92.6795 69.0089 92.7575 69.5969 92.7575C70.3049 92.7575 70.8509 92.6375 71.2349 92.3975C71.6309 92.1575 71.8289 91.8275 71.8289 91.4075C71.8289 91.0715 71.7209 90.8135 71.5049 90.6335C71.2889 90.4415 70.9889 90.2915 70.6049 90.1835C70.2329 90.0635 69.7889 89.9555 69.2729 89.8595C68.8409 89.7635 68.4089 89.6555 67.9769 89.5355C67.5449 89.4155 67.1489 89.2595 66.7889 89.0675C66.4409 88.8635 66.1589 88.5995 65.9429 88.2755C65.7269 87.9515 65.6189 87.5495 65.6189 87.0695C65.6189 86.5055 65.7689 86.0195 66.0689 85.6115C66.3689 85.2035 66.7949 84.8855 67.3469 84.6575C67.8989 84.4295 68.5589 84.3155 69.3269 84.3155C70.0949 84.3155 70.7489 84.4355 71.2889 84.6755C71.8289 84.9035 72.2549 85.2275 72.5669 85.6475C72.8789 86.0675 73.0529 86.5595 73.0889 87.1235L71.6669 87.4835C71.6549 87.0875 71.5469 86.7515 71.3429 86.4755C71.1509 86.1995 70.8749 85.9955 70.5149 85.8635C70.1549 85.7195 69.7349 85.6475 69.2549 85.6475C68.6189 85.6475 68.1149 85.7675 67.7429 86.0075C67.3709 86.2475 67.1849 86.5775 67.1849 86.9975C67.1849 87.3095 67.2929 87.5615 67.5089 87.7535C67.7369 87.9455 68.0429 88.0955 68.4269 88.2035C68.8109 88.3115 69.2369 88.4195 69.7049 88.5275C70.1849 88.6235 70.6409 88.7315 71.0729 88.8515C71.5169 88.9715 71.9129 89.1275 72.2609 89.3195C72.6089 89.5115 72.8849 89.7695 73.0889 90.0935C73.2929 90.4055 73.3949 90.8075 73.3949 91.2995C73.3949 91.9115 73.2329 92.4275 72.9089 92.8475C72.5849 93.2555 72.1289 93.5675 71.5409 93.7835C70.9649 93.9875 70.2869 94.0895 69.5069 94.0895ZM79.627 94.0895C78.895 94.0895 78.247 93.9815 77.683 93.7655C77.131 93.5375 76.663 93.2135 76.279 92.7935C75.895 92.3735 75.607 91.8755 75.415 91.2995C75.223 90.7235 75.127 90.0755 75.127 89.3555C75.127 88.6235 75.223 87.9515 75.415 87.3395C75.607 86.7275 75.889 86.1935 76.261 85.7375C76.633 85.2815 77.089 84.9335 77.629 84.6935C78.169 84.4415 78.787 84.3155 79.483 84.3155C80.095 84.3155 80.653 84.4175 81.157 84.6215C81.661 84.8255 82.087 85.1435 82.435 85.5755C82.795 85.9955 83.065 86.5295 83.245 87.1775C83.425 87.8135 83.497 88.5635 83.461 89.4275L76.153 89.4815V88.3655L82.471 88.3115L81.913 89.0675C81.973 88.3115 81.901 87.6875 81.697 87.1955C81.493 86.7035 81.199 86.3315 80.815 86.0795C80.443 85.8275 79.999 85.7015 79.483 85.7015C78.931 85.7015 78.445 85.8455 78.025 86.1335C77.605 86.4215 77.281 86.8355 77.053 87.3755C76.837 87.9155 76.729 88.5695 76.729 89.3375C76.729 90.4415 76.975 91.2875 77.467 91.8755C77.959 92.4515 78.691 92.7395 79.663 92.7395C80.035 92.7395 80.359 92.6975 80.635 92.6135C80.923 92.5175 81.163 92.3915 81.355 92.2355C81.559 92.0675 81.721 91.8755 81.841 91.6595C81.973 91.4435 82.075 91.2095 82.147 90.9575L83.587 91.2995C83.479 91.7315 83.311 92.1215 83.083 92.4695C82.867 92.8055 82.591 93.0935 82.255 93.3335C81.931 93.5735 81.553 93.7595 81.121 93.8915C80.689 94.0235 80.191 94.0895 79.627 94.0895Z" fill="#F8F9FA"/>
<defs>
<linearGradient id="paint0_linear_3398_808" x1="32.2175" y1="27.062" x2="76.133" y2="45.2622" gradientUnits="userSpaceOnUse">
<stop stop-color="white" stop-opacity="0.1"/>
<stop offset="0.1" stop-color="white" stop-opacity="0"/>
<stop offset="0.6" stop-color="white" stop-opacity="0"/>
<stop offset="1" stop-color="white" stop-opacity="0"/>
</linearGradient>
<clipPath id="clip0_3398_808">
<rect width="56" height="56" fill="white" transform="translate(24 12.8555)"/>
</clipPath>
</defs>
</svg>
