<svg width="156" height="44" viewBox="0 0 156 44" fill="none" xmlns="http://www.w3.org/2000/svg">
<rect x="2.5" y="4.5" width="153" height="39" rx="19.5" fill="#F87A55"/>
<rect x="2.5" y="4.5" width="153" height="39" rx="19.5" stroke="#F8F9FA"/>
<path d="M32.102 30.234C31.13 30.234 30.26 30.012 29.492 29.568C28.736 29.112 28.136 28.434 27.692 27.534C27.26 26.634 27.044 25.506 27.044 24.15C27.044 23.166 27.164 22.29 27.404 21.522C27.644 20.754 28.004 20.1 28.484 19.56C28.964 19.02 29.546 18.606 30.23 18.318C30.926 18.03 31.73 17.886 32.642 17.886C33.326 17.886 33.944 17.97 34.496 18.138C35.048 18.306 35.528 18.546 35.936 18.858C36.344 19.17 36.668 19.548 36.908 19.992C37.16 20.436 37.304 20.946 37.34 21.522L35.468 22.08C35.432 21.48 35.276 20.994 35 20.622C34.724 20.25 34.37 19.98 33.938 19.812C33.518 19.644 33.068 19.56 32.588 19.56C31.88 19.56 31.262 19.716 30.734 20.028C30.218 20.34 29.816 20.832 29.528 21.504C29.24 22.164 29.096 23.022 29.096 24.078C29.096 24.894 29.18 25.59 29.348 26.166C29.528 26.73 29.768 27.192 30.068 27.552C30.38 27.9 30.746 28.158 31.166 28.326C31.598 28.482 32.06 28.56 32.552 28.56C33.152 28.56 33.668 28.452 34.1 28.236C34.532 28.02 34.88 27.69 35.144 27.246C35.408 26.802 35.57 26.238 35.63 25.554H33.074V24.06H37.574V25.968V30H36.08L36.314 26.832H36.026C35.858 27.588 35.606 28.218 35.27 28.722C34.946 29.226 34.526 29.604 34.01 29.856C33.494 30.108 32.858 30.234 32.102 30.234ZM44.181 30.234C43.437 30.234 42.777 30.126 42.201 29.91C41.625 29.682 41.139 29.364 40.743 28.956C40.347 28.536 40.047 28.038 39.843 27.462C39.639 26.874 39.537 26.214 39.537 25.482C39.537 24.75 39.639 24.078 39.843 23.466C40.047 22.842 40.335 22.302 40.707 21.846C41.091 21.39 41.559 21.036 42.111 20.784C42.675 20.532 43.311 20.406 44.019 20.406C44.679 20.406 45.267 20.514 45.783 20.73C46.311 20.946 46.755 21.276 47.115 21.72C47.475 22.152 47.745 22.698 47.925 23.358C48.105 24.006 48.171 24.768 48.123 25.644L40.797 25.698V24.474L46.971 24.42L46.287 25.176C46.359 24.456 46.299 23.862 46.107 23.394C45.915 22.926 45.639 22.578 45.279 22.35C44.919 22.122 44.505 22.008 44.037 22.008C43.509 22.008 43.047 22.146 42.651 22.422C42.267 22.686 41.967 23.076 41.751 23.592C41.535 24.108 41.427 24.726 41.427 25.446C41.427 26.526 41.667 27.342 42.147 27.894C42.627 28.434 43.311 28.704 44.199 28.704C44.571 28.704 44.889 28.662 45.153 28.578C45.417 28.482 45.639 28.362 45.819 28.218C45.999 28.062 46.143 27.882 46.251 27.678C46.371 27.462 46.467 27.24 46.539 27.012L48.249 27.408C48.141 27.852 47.973 28.248 47.745 28.596C47.529 28.932 47.253 29.226 46.917 29.478C46.581 29.718 46.185 29.904 45.729 30.036C45.285 30.168 44.769 30.234 44.181 30.234ZM53.4206 30.198C52.4966 30.198 51.8066 29.946 51.3506 29.442C50.9066 28.938 50.6846 28.164 50.6846 27.12V22.242H49.2986L49.3346 20.64H50.2346C50.5466 20.64 50.7806 20.592 50.9366 20.496C51.0926 20.388 51.1886 20.202 51.2246 19.938L51.4046 18.552H52.5746V20.64H55.1486V22.278H52.5746V27.066C52.5746 27.534 52.6826 27.87 52.8986 28.074C53.1146 28.278 53.4326 28.38 53.8526 28.38C54.0806 28.38 54.3086 28.356 54.5366 28.308C54.7766 28.248 55.0046 28.14 55.2206 27.984V29.874C54.8606 29.994 54.5306 30.078 54.2306 30.126C53.9306 30.174 53.6606 30.198 53.4206 30.198ZM61.5922 30V20.64H63.5362V30H61.5922ZM62.5642 19.074C62.1442 19.074 61.8262 18.99 61.6102 18.822C61.3942 18.642 61.2862 18.378 61.2862 18.03C61.2862 17.694 61.3942 17.436 61.6102 17.256C61.8262 17.076 62.1442 16.986 62.5642 16.986C62.9962 16.986 63.3202 17.076 63.5362 17.256C63.7522 17.436 63.8602 17.694 63.8602 18.03C63.8602 18.378 63.7522 18.642 63.5362 18.822C63.3202 18.99 62.9962 19.074 62.5642 19.074ZM66.2504 30V24.24V20.64H67.9424L67.8344 23.556H68.1404C68.3084 22.836 68.5304 22.248 68.8064 21.792C69.0944 21.324 69.4544 20.976 69.8864 20.748C70.3304 20.52 70.8464 20.406 71.4344 20.406C72.4784 20.406 73.2704 20.778 73.8104 21.522C74.3624 22.266 74.6384 23.4 74.6384 24.924V30H72.6584V25.122C72.6584 24.078 72.5024 23.316 72.1904 22.836C71.8784 22.344 71.4104 22.098 70.7864 22.098C70.2464 22.098 69.7844 22.272 69.4004 22.62C69.0284 22.956 68.7404 23.4 68.5364 23.952C68.3324 24.504 68.2184 25.104 68.1944 25.752V30H66.2504ZM84.2593 30V18.12H86.2393V30H84.2593ZM80.6953 19.812V18.12H89.8213V19.812H80.6953ZM94.3657 30.234C93.4657 30.234 92.6677 30.042 91.9717 29.658C91.2757 29.274 90.7297 28.716 90.3337 27.984C89.9497 27.252 89.7577 26.352 89.7577 25.284C89.7577 24.192 89.9617 23.286 90.3697 22.566C90.7777 21.846 91.3237 21.306 92.0077 20.946C92.7037 20.586 93.4837 20.406 94.3477 20.406C95.2357 20.406 96.0277 20.592 96.7237 20.964C97.4197 21.336 97.9657 21.888 98.3617 22.62C98.7697 23.352 98.9737 24.264 98.9737 25.356C98.9737 26.436 98.7697 27.342 98.3617 28.074C97.9657 28.794 97.4197 29.334 96.7237 29.694C96.0277 30.054 95.2417 30.234 94.3657 30.234ZM94.4377 28.686C94.9777 28.686 95.4397 28.56 95.8237 28.308C96.2077 28.056 96.5017 27.684 96.7057 27.192C96.9097 26.7 97.0117 26.112 97.0117 25.428C97.0117 24.72 96.9037 24.114 96.6877 23.61C96.4717 23.094 96.1597 22.698 95.7517 22.422C95.3557 22.146 94.8697 22.008 94.2937 22.008C93.7777 22.008 93.3217 22.134 92.9257 22.386C92.5417 22.626 92.2477 22.992 92.0437 23.484C91.8397 23.964 91.7377 24.552 91.7377 25.248C91.7377 26.34 91.9777 27.186 92.4577 27.786C92.9377 28.386 93.5977 28.686 94.4377 28.686ZM104.203 30.234C103.147 30.234 102.349 29.874 101.809 29.154C101.269 28.422 100.999 27.324 100.999 25.86V20.64H102.961V25.644C102.961 26.628 103.111 27.36 103.411 27.84C103.711 28.32 104.185 28.56 104.833 28.56C105.193 28.56 105.511 28.47 105.787 28.29C106.063 28.11 106.303 27.858 106.507 27.534C106.723 27.21 106.891 26.832 107.011 26.4C107.143 25.956 107.233 25.47 107.281 24.942V20.64H109.225V26.112V30H107.569L107.659 27.03H107.353C107.197 27.774 106.975 28.386 106.687 28.866C106.411 29.334 106.063 29.682 105.643 29.91C105.235 30.126 104.755 30.234 104.203 30.234ZM116.022 30.234C115.218 30.234 114.522 30.108 113.934 29.856C113.358 29.604 112.884 29.256 112.512 28.812C112.14 28.368 111.864 27.858 111.684 27.282C111.504 26.706 111.414 26.088 111.414 25.428C111.414 24.72 111.51 24.066 111.702 23.466C111.894 22.854 112.176 22.32 112.548 21.864C112.932 21.396 113.406 21.036 113.97 20.784C114.534 20.532 115.188 20.406 115.932 20.406C116.664 20.406 117.3 20.532 117.84 20.784C118.392 21.024 118.842 21.372 119.19 21.828C119.538 22.272 119.766 22.794 119.874 23.394L118.038 23.952C118.002 23.604 117.9 23.28 117.732 22.98C117.564 22.68 117.324 22.446 117.012 22.278C116.7 22.098 116.322 22.008 115.878 22.008C115.458 22.008 115.092 22.092 114.78 22.26C114.468 22.416 114.21 22.65 114.006 22.962C113.802 23.262 113.646 23.616 113.538 24.024C113.442 24.432 113.394 24.882 113.394 25.374C113.394 26.046 113.484 26.634 113.664 27.138C113.856 27.63 114.15 28.014 114.546 28.29C114.942 28.554 115.44 28.686 116.04 28.686C116.544 28.686 116.958 28.596 117.282 28.416C117.606 28.236 117.858 27.996 118.038 27.696C118.218 27.384 118.338 27.024 118.398 26.616L120.144 27.03C120.072 27.522 119.928 27.972 119.712 28.38C119.496 28.776 119.214 29.112 118.866 29.388C118.518 29.664 118.104 29.874 117.624 30.018C117.156 30.162 116.622 30.234 116.022 30.234ZM121.903 30V24.258V17.31H123.883V20.226C123.883 20.478 123.877 20.742 123.865 21.018C123.853 21.282 123.829 21.552 123.793 21.828C123.757 22.104 123.721 22.38 123.685 22.656C123.649 22.932 123.607 23.214 123.559 23.502H123.883C124.063 22.83 124.285 22.266 124.549 21.81C124.825 21.342 125.167 20.994 125.575 20.766C125.995 20.526 126.499 20.406 127.087 20.406C128.167 20.406 128.971 20.784 129.499 21.54C130.027 22.284 130.291 23.406 130.291 24.906V30H128.311V25.158C128.311 24.102 128.149 23.328 127.825 22.836C127.513 22.344 127.039 22.098 126.403 22.098C125.875 22.098 125.431 22.254 125.071 22.566C124.723 22.878 124.447 23.298 124.243 23.826C124.039 24.354 123.907 24.954 123.847 25.626V30H121.903Z" fill="#F8F9FA"/>
</svg>
