<svg width="96" height="99" viewBox="0 0 96 99" fill="none" xmlns="http://www.w3.org/2000/svg">
<g clip-path="url(#clip0_3398_811)">
<path d="M52.0292 68.7971C50.2792 68.7971 48.5933 68.0971 47.31 66.8721L25.925 45.4871C24.6417 44.2038 24 42.5763 24 40.768C24 38.9596 24.7 37.3321 25.925 36.0488L42.7658 19.208L47.1933 14.7805C48.4183 13.4971 50.1042 12.8555 51.9125 12.8555C53.7208 12.8555 55.3483 13.5555 56.6317 14.8388L78.0167 36.2238C79.3 37.5071 79.9417 39.1346 79.9417 40.943C79.9417 42.7513 79.2417 44.3788 78.0167 45.6621L56.7483 66.9305C55.465 68.2138 53.8375 68.8555 52.0292 68.8555V68.7971Z" fill="#F8F9FA"/>
<path d="M75.482 38.6709L54.097 17.2859C52.872 16.0609 50.8945 16.0609 49.6111 17.2859L45.1836 21.7134L50.8361 27.3659C52.1195 26.8993 53.6303 27.2493 54.6803 28.2409C55.7303 29.2909 56.022 30.8076 55.5553 32.1434L60.9745 37.5626C62.3161 37.0959 63.827 37.3876 64.877 38.4376C66.3353 39.8959 66.3353 42.2818 64.877 43.7401C63.4186 45.1984 61.0328 45.1984 59.5745 43.7401C58.4661 42.6318 58.1745 40.9984 58.7578 39.6626L53.6886 34.5934V47.9401C54.0386 48.1151 54.3886 48.3484 54.6803 48.6401C56.1386 50.0984 56.1386 52.4843 54.6803 53.9426C53.222 55.4009 50.8361 55.4009 49.3778 53.9426C47.9195 52.4843 47.9195 50.0984 49.3778 48.6401C49.7278 48.2901 50.1361 47.9984 50.6028 47.8234V34.3601C50.1361 34.1851 49.7278 33.8934 49.3778 33.5434C48.2695 32.4351 47.9778 30.8018 48.5611 29.4659L43.0253 23.9301L28.3953 38.5543C27.1703 39.7793 27.1703 41.7568 28.3953 43.0401L49.7803 64.4251C51.0053 65.6501 52.9828 65.6501 54.2661 64.4251L75.5345 43.1568C76.7595 41.9318 76.7595 39.9543 75.5345 38.6709H75.4761H75.482Z" fill="#F05133"/>
</g>
<path d="M42.2732 94.0895C41.3012 94.0895 40.4312 93.8675 39.6632 93.4235C38.9072 92.9675 38.3132 92.2895 37.8812 91.3895C37.4492 90.4895 37.2332 89.3495 37.2332 87.9695C37.2332 86.9975 37.3532 86.1335 37.5932 85.3775C37.8332 84.6095 38.1812 83.9555 38.6372 83.4155C39.1052 82.8755 39.6752 82.4615 40.3472 82.1735C41.0192 81.8855 41.7992 81.7415 42.6872 81.7415C43.3472 81.7415 43.9412 81.8255 44.4692 81.9935C45.0092 82.1615 45.4772 82.4015 45.8732 82.7135C46.2692 83.0255 46.5872 83.4095 46.8272 83.8655C47.0792 84.3215 47.2352 84.8375 47.2952 85.4135L45.7112 85.8635C45.6632 85.2155 45.4892 84.6995 45.1892 84.3155C44.8892 83.9195 44.5172 83.6315 44.0732 83.4515C43.6292 83.2715 43.1552 83.1815 42.6512 83.1815C41.9192 83.1815 41.2772 83.3435 40.7252 83.6675C40.1732 83.9915 39.7412 84.5075 39.4292 85.2155C39.1172 85.9115 38.9612 86.8175 38.9612 87.9335C38.9612 88.8095 39.0572 89.5475 39.2492 90.1475C39.4412 90.7475 39.6992 91.2335 40.0232 91.6055C40.3472 91.9655 40.7252 92.2295 41.1572 92.3975C41.6012 92.5535 42.0692 92.6315 42.5612 92.6315C43.1972 92.6315 43.7432 92.5115 44.1992 92.2715C44.6552 92.0315 45.0212 91.6715 45.2972 91.1915C45.5852 90.6995 45.7652 90.0815 45.8372 89.3375H43.1192V88.0235H47.4752V89.8055V93.8555H46.1252L46.4672 90.6155H46.1972C46.0412 91.3955 45.7952 92.0435 45.4592 92.5595C45.1352 93.0635 44.7092 93.4475 44.1812 93.7115C43.6652 93.9635 43.0292 94.0895 42.2732 94.0895ZM50.1431 93.8555V84.5495H51.7811V93.8555H50.1431ZM50.9711 82.9295C50.5871 82.9295 50.2991 82.8515 50.1071 82.6955C49.9151 82.5395 49.8191 82.3055 49.8191 81.9935C49.8191 81.6815 49.9151 81.4475 50.1071 81.2915C50.2991 81.1355 50.5811 81.0575 50.9531 81.0575C51.3371 81.0575 51.6251 81.1355 51.8171 81.2915C52.0091 81.4475 52.1051 81.6815 52.1051 81.9935C52.1051 82.2935 52.0091 82.5275 51.8171 82.6955C51.6251 82.8515 51.3431 82.9295 50.9711 82.9295ZM57.5231 94.0355C56.6591 94.0355 56.0171 93.8015 55.5971 93.3335C55.1771 92.8655 54.9671 92.1515 54.9671 91.1915V85.9175H53.5631L53.5811 84.5495H54.4631C54.7631 84.5495 54.9791 84.4955 55.1111 84.3875C55.2551 84.2795 55.3391 84.0995 55.3631 83.8475L55.5431 82.4435H56.5511V84.5495H59.2331V85.9355H56.5511V91.1555C56.5511 91.6355 56.6591 91.9835 56.8751 92.1995C57.1031 92.4035 57.4271 92.5055 57.8471 92.5055C58.0751 92.5055 58.3091 92.4755 58.5491 92.4155C58.8011 92.3555 59.0471 92.2355 59.2871 92.0555V93.6935C58.9391 93.8255 58.6151 93.9155 58.3151 93.9635C58.0271 94.0115 57.7631 94.0355 57.5231 94.0355Z" fill="#F8F9FA"/>
<defs>
<clipPath id="clip0_3398_811">
<rect width="56" height="56" fill="white" transform="translate(24 12.8555)"/>
</clipPath>
</defs>
</svg>
