<svg width="359" height="24" viewBox="0 0 359 24" fill="none" xmlns="http://www.w3.org/2000/svg">
<g clip-path="url(#clip0_3874_3566)">
<path d="M22.5 0H1.5C0.671573 0 0 0.671573 0 1.5V22.5C0 23.3284 0.671573 24 1.5 24H22.5C23.3284 24 24 23.3284 24 22.5V1.5C24 0.671573 23.3284 0 22.5 0Z" fill="white"/>
<path d="M22.5 1.5H1.5V22.5H22.5V1.5Z" fill="#F7DF1E"/>
<path d="M15.5984 17.9008C16.0234 18.6008 16.5734 19.1008 17.5484 19.1008C18.5234 19.1008 18.8984 18.7008 18.8984 18.1258C18.8984 17.5508 18.3734 17.2008 17.4734 16.8258L16.9734 16.6258C15.5484 16.0258 14.5984 15.2508 14.5984 13.6508C14.5984 12.0508 15.7234 11.0508 17.4984 11.0508C19.2734 11.0508 19.6484 11.4758 20.2984 12.6258L18.7734 13.6008C18.4234 13.0008 18.0734 12.7508 17.4984 12.7508C16.9234 12.7508 16.5484 13.1258 16.5484 13.6008C16.5484 14.0758 16.9234 14.4258 17.7734 14.8008L18.2734 15.0008C19.9484 15.7258 20.8984 16.4508 20.8984 18.1008C20.8984 19.7508 19.4984 20.8508 17.6234 20.8508C15.7484 20.8508 14.5984 19.9758 14.0234 18.8258L15.6234 17.9008H15.5984ZM8.62344 18.0758C8.92344 18.6258 9.22344 19.1008 9.89844 19.1008C10.5734 19.1008 10.9484 18.8508 10.9484 17.8508V11.1508H12.9234V17.8758C12.9234 19.9258 11.7234 20.8508 9.97344 20.8508C8.22344 20.8508 7.47344 20.0258 7.02344 19.0508L8.62344 18.0758Z" fill="black"/>
</g>
<path d="M28.368 17.644L28.144 16.252C28.2613 16.2733 28.368 16.284 28.464 16.284C28.56 16.284 28.6453 16.284 28.72 16.284C29.296 16.284 29.728 16.1933 30.016 16.012C30.3147 15.8307 30.5173 15.5587 30.624 15.196C30.7307 14.8227 30.784 14.364 30.784 13.82V6.94H32.24V13.836C32.24 14.604 32.1387 15.276 31.936 15.852C31.744 16.428 31.408 16.876 30.928 17.196C30.448 17.5053 29.776 17.66 28.912 17.66C28.848 17.66 28.7733 17.66 28.688 17.66C28.6027 17.66 28.496 17.6547 28.368 17.644ZM36.6993 17.708C36.2513 17.708 35.8459 17.6227 35.4833 17.452C35.1206 17.2707 34.8326 17.0093 34.6193 16.668C34.4059 16.316 34.2993 15.8733 34.2993 15.34C34.2993 14.9453 34.3686 14.5987 34.5073 14.3C34.6566 14.0013 34.8806 13.7453 35.1793 13.532C35.4886 13.3187 35.8832 13.1427 36.3633 13.004C36.8433 12.8653 37.4299 12.748 38.1233 12.652C38.5179 12.5987 38.8379 12.5453 39.0833 12.492C39.3393 12.4387 39.5259 12.3533 39.6433 12.236C39.7606 12.108 39.8193 11.9213 39.8193 11.676C39.8193 11.2707 39.6806 10.9293 39.4033 10.652C39.1259 10.3747 38.6886 10.236 38.0913 10.236C37.7819 10.236 37.4673 10.2893 37.1473 10.396C36.8273 10.5027 36.5446 10.684 36.2993 10.94C36.0646 11.1853 35.9153 11.532 35.8513 11.98L34.5073 11.532C34.5926 11.148 34.7313 10.8013 34.9233 10.492C35.1259 10.1827 35.3819 9.92133 35.6913 9.708C36.0006 9.484 36.3579 9.31333 36.7633 9.196C37.1793 9.07867 37.6379 9.02 38.1393 9.02C38.8326 9.02 39.4086 9.13733 39.8673 9.372C40.3366 9.60667 40.6833 9.96933 40.9073 10.46C41.1419 10.94 41.2593 11.5587 41.2593 12.316V14.156C41.2593 14.4867 41.2646 14.8493 41.2753 15.244C41.2966 15.628 41.3233 16.0173 41.3553 16.412C41.3873 16.796 41.4193 17.1587 41.4513 17.5H40.1073C40.0753 17.1587 40.0433 16.8173 40.0113 16.476C39.9899 16.1347 39.9739 15.7933 39.9633 15.452H39.7553C39.5953 15.8467 39.3819 16.2147 39.1153 16.556C38.8486 16.8973 38.5126 17.1747 38.1073 17.388C37.7126 17.6013 37.2433 17.708 36.6993 17.708ZM37.1313 16.524C37.3659 16.524 37.6006 16.4867 37.8353 16.412C38.0806 16.3373 38.3206 16.2147 38.5553 16.044C38.8006 15.8733 39.0299 15.6547 39.2433 15.388C39.4673 15.1213 39.6646 14.8013 39.8353 14.428V12.828L40.2513 12.908C40.0806 13.0787 39.8513 13.2067 39.5633 13.292C39.2859 13.3773 38.9766 13.4467 38.6353 13.5C38.2939 13.5533 37.9526 13.612 37.6113 13.676C37.2699 13.7293 36.9553 13.8147 36.6673 13.932C36.3899 14.0387 36.1659 14.1933 35.9953 14.396C35.8246 14.5987 35.7393 14.876 35.7393 15.228C35.7393 15.6547 35.8673 15.98 36.1233 16.204C36.3793 16.4173 36.7153 16.524 37.1313 16.524ZM45.4984 17.5L42.5384 9.244H44.1544L46.4104 16.268H46.6344L48.8744 9.244H50.4584L47.5144 17.5H45.4984ZM53.793 17.708C53.345 17.708 52.9397 17.6227 52.577 17.452C52.2143 17.2707 51.9263 17.0093 51.713 16.668C51.4997 16.316 51.393 15.8733 51.393 15.34C51.393 14.9453 51.4623 14.5987 51.601 14.3C51.7503 14.0013 51.9743 13.7453 52.273 13.532C52.5823 13.3187 52.977 13.1427 53.457 13.004C53.937 12.8653 54.5237 12.748 55.217 12.652C55.6117 12.5987 55.9317 12.5453 56.177 12.492C56.433 12.4387 56.6197 12.3533 56.737 12.236C56.8543 12.108 56.913 11.9213 56.913 11.676C56.913 11.2707 56.7743 10.9293 56.497 10.652C56.2197 10.3747 55.7823 10.236 55.185 10.236C54.8757 10.236 54.561 10.2893 54.241 10.396C53.921 10.5027 53.6383 10.684 53.393 10.94C53.1583 11.1853 53.009 11.532 52.945 11.98L51.601 11.532C51.6863 11.148 51.825 10.8013 52.017 10.492C52.2197 10.1827 52.4757 9.92133 52.785 9.708C53.0943 9.484 53.4517 9.31333 53.857 9.196C54.273 9.07867 54.7317 9.02 55.233 9.02C55.9263 9.02 56.5023 9.13733 56.961 9.372C57.4303 9.60667 57.777 9.96933 58.001 10.46C58.2357 10.94 58.353 11.5587 58.353 12.316V14.156C58.353 14.4867 58.3583 14.8493 58.369 15.244C58.3903 15.628 58.417 16.0173 58.449 16.412C58.481 16.796 58.513 17.1587 58.545 17.5H57.201C57.169 17.1587 57.137 16.8173 57.105 16.476C57.0837 16.1347 57.0677 15.7933 57.057 15.452H56.849C56.689 15.8467 56.4757 16.2147 56.209 16.556C55.9423 16.8973 55.6063 17.1747 55.201 17.388C54.8063 17.6013 54.337 17.708 53.793 17.708ZM54.225 16.524C54.4597 16.524 54.6943 16.4867 54.929 16.412C55.1743 16.3373 55.4143 16.2147 55.649 16.044C55.8943 15.8733 56.1237 15.6547 56.337 15.388C56.561 15.1213 56.7583 14.8013 56.929 14.428V12.828L57.345 12.908C57.1743 13.0787 56.945 13.2067 56.657 13.292C56.3797 13.3773 56.0703 13.4467 55.729 13.5C55.3877 13.5533 55.0463 13.612 54.705 13.676C54.3637 13.7293 54.049 13.8147 53.761 13.932C53.4837 14.0387 53.2597 14.1933 53.089 14.396C52.9183 14.5987 52.833 14.876 52.833 15.228C52.833 15.6547 52.961 15.98 53.217 16.204C53.473 16.4173 53.809 16.524 54.225 16.524ZM64.5564 17.708C63.8524 17.708 63.2337 17.6333 62.7004 17.484C62.1777 17.3347 61.735 17.116 61.3724 16.828C61.0204 16.5293 60.759 16.1667 60.5884 15.74C60.4177 15.3133 60.343 14.8173 60.3644 14.252L61.6924 13.964C61.6497 14.5187 61.7404 14.9827 61.9644 15.356C62.1884 15.7293 62.5297 16.012 62.9884 16.204C63.447 16.3853 63.9857 16.476 64.6044 16.476C65.2017 16.476 65.7084 16.4013 66.1244 16.252C66.5404 16.1027 66.8497 15.8947 67.0524 15.628C67.2657 15.3613 67.3724 15.0573 67.3724 14.716C67.3724 14.332 67.2497 14.028 67.0044 13.804C66.759 13.58 66.4284 13.4093 66.0124 13.292C65.607 13.164 65.1537 13.0467 64.6524 12.94C64.1617 12.8333 63.671 12.7107 63.1804 12.572C62.6897 12.4333 62.247 12.2573 61.8524 12.044C61.4684 11.82 61.1537 11.532 60.9084 11.18C60.6737 10.8173 60.5564 10.3587 60.5564 9.804C60.5564 9.17467 60.711 8.63067 61.0204 8.172C61.3404 7.71333 61.7884 7.36133 62.3644 7.116C62.9404 6.86 63.6177 6.732 64.3964 6.732C65.1644 6.732 65.847 6.85467 66.4444 7.1C67.0524 7.34533 67.5324 7.708 67.8844 8.188C68.2364 8.65733 68.423 9.23867 68.4444 9.932L67.0684 10.268C67.0684 9.884 66.999 9.548 66.8604 9.26C66.7324 8.96133 66.551 8.72133 66.3164 8.54C66.0817 8.348 65.799 8.204 65.4684 8.108C65.1377 8.00133 64.775 7.948 64.3804 7.948C63.9004 7.948 63.479 8.02267 63.1164 8.172C62.7537 8.32133 62.471 8.524 62.2684 8.78C62.0657 9.036 61.9644 9.34 61.9644 9.692C61.9644 10.108 62.1084 10.4387 62.3964 10.684C62.695 10.9187 63.079 11.1053 63.5484 11.244C64.0177 11.3827 64.519 11.5107 65.0524 11.628C65.511 11.724 65.959 11.8413 66.3964 11.98C66.8444 12.108 67.2497 12.284 67.6124 12.508C67.975 12.7213 68.263 13.004 68.4764 13.356C68.6897 13.708 68.7964 14.156 68.7964 14.7C68.7964 15.308 68.6364 15.836 68.3164 16.284C68.007 16.732 67.5377 17.084 66.9084 17.34C66.279 17.5853 65.495 17.708 64.5564 17.708ZM74.4566 17.708C73.7313 17.708 73.1126 17.5907 72.6006 17.356C72.0993 17.1213 71.6886 16.8067 71.3686 16.412C71.0593 16.0173 70.83 15.564 70.6806 15.052C70.542 14.54 70.4726 14.0067 70.4726 13.452C70.4726 12.844 70.5526 12.2733 70.7126 11.74C70.8726 11.2067 71.1126 10.7373 71.4326 10.332C71.7633 9.916 72.1686 9.596 72.6486 9.372C73.1393 9.13733 73.71 9.02 74.3606 9.02C74.99 9.02 75.5446 9.132 76.0246 9.356C76.5046 9.56933 76.894 9.87333 77.1926 10.268C77.502 10.6627 77.6993 11.132 77.7846 11.676L76.3926 12.06C76.3713 11.7613 76.2806 11.4733 76.1206 11.196C75.9713 10.9187 75.7473 10.6947 75.4486 10.524C75.15 10.3427 74.782 10.252 74.3446 10.252C73.9286 10.252 73.5713 10.332 73.2726 10.492C72.9846 10.652 72.7393 10.876 72.5366 11.164C72.3446 11.452 72.1953 11.788 72.0886 12.172C71.9926 12.556 71.9446 12.972 71.9446 13.42C71.9446 14.0387 72.03 14.5773 72.2006 15.036C72.382 15.4947 72.6593 15.852 73.0326 16.108C73.406 16.364 73.886 16.492 74.4726 16.492C74.91 16.492 75.2833 16.4173 75.5926 16.268C75.902 16.108 76.1473 15.8893 76.3286 15.612C76.51 15.324 76.6273 14.988 76.6806 14.604L78.0246 14.908C77.95 15.3667 77.8113 15.772 77.6086 16.124C77.406 16.476 77.15 16.7693 76.8406 17.004C76.5313 17.228 76.174 17.3987 75.7686 17.516C75.374 17.644 74.9366 17.708 74.4566 17.708ZM79.6859 17.5V13.02V9.228H80.9979L80.8699 12.108H81.1419C81.2379 11.4787 81.3872 10.9347 81.5899 10.476C81.7925 10.0173 82.0592 9.66 82.3899 9.404C82.7312 9.148 83.1525 9.02 83.6539 9.02C83.7605 9.02 83.8832 9.03067 84.0219 9.052C84.1605 9.06267 84.3205 9.1 84.5019 9.164L84.4219 10.684C84.2619 10.62 84.1019 10.5773 83.9419 10.556C83.7819 10.524 83.6272 10.508 83.4779 10.508C83.0619 10.508 82.6992 10.6413 82.3899 10.908C82.0912 11.1747 81.8405 11.5373 81.6379 11.996C81.4352 12.444 81.2699 12.9507 81.1419 13.516V17.5H79.6859ZM86.0925 17.5V9.228H87.5485V17.5H86.0925ZM86.8285 7.788C86.4872 7.788 86.2312 7.71867 86.0605 7.58C85.8898 7.44133 85.8045 7.23333 85.8045 6.956C85.8045 6.67867 85.8898 6.47067 86.0605 6.332C86.2312 6.19333 86.4818 6.124 86.8125 6.124C87.1538 6.124 87.4098 6.19333 87.5805 6.332C87.7512 6.47067 87.8365 6.67867 87.8365 6.956C87.8365 7.22267 87.7512 7.43067 87.5805 7.58C87.4098 7.71867 87.1592 7.788 86.8285 7.788ZM90.0765 20.092V13.372V9.228H91.3885L91.3085 11.356H91.5485C91.6765 10.8867 91.8525 10.4813 92.0765 10.14C92.3112 9.788 92.6098 9.516 92.9725 9.324C93.3352 9.12133 93.7725 9.02 94.2845 9.02C95.0418 9.02 95.6712 9.212 96.1725 9.596C96.6845 9.96933 97.0685 10.4867 97.3245 11.148C97.5805 11.7987 97.7085 12.54 97.7085 13.372C97.7085 14.204 97.5805 14.9453 97.3245 15.596C97.0685 16.2467 96.6898 16.764 96.1885 17.148C95.6978 17.5213 95.0952 17.708 94.3805 17.708C93.8045 17.708 93.3245 17.5907 92.9405 17.356C92.5672 17.1107 92.2685 16.7907 92.0445 16.396C91.8205 16.0013 91.6445 15.5907 91.5165 15.164H91.2445C91.3085 15.452 91.3618 15.7507 91.4045 16.06C91.4472 16.3693 91.4792 16.6787 91.5005 16.988C91.5325 17.2867 91.5485 17.5747 91.5485 17.852V20.092H90.0765ZM94.0125 16.444C94.4818 16.444 94.8765 16.3107 95.1965 16.044C95.5165 15.7667 95.7618 15.3933 95.9325 14.924C96.1032 14.4547 96.1885 13.9267 96.1885 13.34C96.1885 12.7107 96.0978 12.172 95.9165 11.724C95.7458 11.276 95.5005 10.9293 95.1805 10.684C94.8605 10.428 94.4712 10.3 94.0125 10.3C93.6178 10.3 93.2658 10.3907 92.9565 10.572C92.6578 10.7427 92.4018 10.9773 92.1885 11.276C91.9752 11.564 91.8098 11.884 91.6925 12.236C91.5858 12.5773 91.5325 12.9187 91.5325 13.26V13.452C91.5325 13.6653 91.5645 13.9053 91.6285 14.172C91.6925 14.428 91.7885 14.6893 91.9165 14.956C92.0445 15.2227 92.2045 15.468 92.3965 15.692C92.5992 15.916 92.8338 16.0973 93.1005 16.236C93.3672 16.3747 93.6712 16.444 94.0125 16.444ZM102.387 17.66C101.619 17.66 101.048 17.452 100.675 17.036C100.302 16.62 100.115 15.9853 100.115 15.132V10.444H98.8669L98.8829 9.228H99.6669C99.9335 9.228 100.126 9.18 100.243 9.084C100.371 8.988 100.446 8.828 100.467 8.604L100.627 7.356H101.523V9.228H103.907V10.46H101.523V15.1C101.523 15.5267 101.619 15.836 101.811 16.028C102.014 16.2093 102.302 16.3 102.675 16.3C102.878 16.3 103.086 16.2733 103.299 16.22C103.523 16.1667 103.742 16.06 103.955 15.9V17.356C103.646 17.4733 103.358 17.5533 103.091 17.596C102.835 17.6387 102.6 17.66 102.387 17.66Z" fill="#0E1013"/>
<path d="M125.064 24C124.939 24 124.789 24 124.664 23.95L117.114 21.85C116.514 21.675 116.064 21.15 116.014 20.55L114.339 1.65C114.314 1.225 114.439 0.825 114.714 0.5C114.989 0.175 115.389 0 115.814 0H134.339C134.764 0 135.164 0.175 135.439 0.5C135.714 0.825 135.864 1.225 135.814 1.65L134.139 20.55C134.089 21.175 133.639 21.7 133.039 21.85L125.439 23.95C125.314 23.975 125.164 24 125.039 24H125.064Z" fill="white"/>
<path d="M117.519 20.4L115.844 1.5H134.369L132.694 20.4L125.094 22.5" fill="#E44D26"/>
<path d="M125.094 20.8969V3.04688H132.669L131.219 19.1719" fill="#F16529"/>
<path d="M119.273 5.375H125.098V7.7H121.823L122.048 10.075H125.123V12.375H119.948M120.023 13.525H122.348L122.523 15.375L125.123 16.075V18.5L120.373 17.175" fill="#EBEBEB"/>
<path d="M130.895 5.375H125.095V7.7H130.695M130.47 10.05H125.095V12.375H127.945L127.67 15.375L125.07 16.075V18.475L129.82 17.15" fill="white"/>
<path d="M149.384 17.5V6.94H150.856V17.5H149.384ZM142.376 17.5V6.94H143.848V17.5H142.376ZM143.112 12.732V11.468H149.976V12.732H143.112ZM155.835 17.5V6.94H157.307V17.5H155.835ZM152.619 8.22V6.94H160.523V8.22H152.619ZM162.298 17.5V6.94H164.57L168.074 15.964H168.154L171.642 6.94H173.834V17.5H172.442L172.538 8.428H172.41L168.778 17.5H167.338L163.738 8.412H163.61L163.706 17.5H162.298ZM176.579 17.5V6.94H178.051V17.5H176.579ZM177.059 17.5V16.22H182.979V17.5H177.059Z" fill="#0E1013"/>
<path d="M204.064 24C203.939 24 203.789 24 203.664 23.95L196.114 21.85C195.514 21.675 195.089 21.15 195.014 20.55L193.339 1.65C193.314 1.225 193.439 0.825 193.714 0.5C193.989 0.2 194.389 0 194.814 0H213.339C213.764 0 214.164 0.175 214.439 0.5C214.714 0.8 214.864 1.225 214.814 1.65L213.139 20.55C213.089 21.175 212.639 21.7 212.039 21.85L204.464 23.95C204.339 23.975 204.189 24 204.064 24Z" fill="white"/>
<path d="M196.487 20.4L194.812 1.5H213.337L211.662 20.4L204.087 22.5L196.537 20.4H196.487Z" fill="#264DE4"/>
<path d="M210.188 19.2008L211.637 3.05078H204.062V20.9008L210.188 19.2008Z" fill="#2965F1"/>
<path d="M198.659 10.0477L198.859 12.3727H204.034V10.0477H198.634H198.659ZM198.459 7.67266H204.059V5.34766H198.234L198.434 7.67266H198.459ZM204.059 16.0727L201.484 15.3727L201.309 13.5227H198.984L199.309 17.1727L204.059 18.4977V16.0727Z" fill="#EBEBEB"/>
<path d="M204.062 10.0531V12.3781H206.912L206.637 15.3781L204.062 16.0781V18.4781L208.812 17.1531V16.7531C208.837 16.7531 209.387 10.6531 209.387 10.6531L209.437 10.0281L209.862 5.32812H204.062V7.65312H207.337L207.137 10.0281H204.087L204.062 10.0531Z" fill="white"/>
<path d="M225.84 17.708C225.083 17.708 224.4 17.5907 223.792 17.356C223.195 17.1213 222.688 16.7747 222.272 16.316C221.856 15.8573 221.536 15.2973 221.312 14.636C221.099 13.964 220.992 13.2013 220.992 12.348C220.992 11.484 221.104 10.7107 221.328 10.028C221.552 9.33467 221.872 8.74267 222.288 8.252C222.704 7.76133 223.205 7.388 223.792 7.132C224.379 6.86533 225.035 6.732 225.76 6.732C226.315 6.732 226.827 6.812 227.296 6.972C227.765 7.12133 228.171 7.34533 228.512 7.644C228.864 7.932 229.136 8.284 229.328 8.7C229.52 9.116 229.621 9.58 229.632 10.092L228.24 10.444C228.251 9.9 228.139 9.452 227.904 9.1C227.669 8.73733 227.36 8.46533 226.976 8.284C226.592 8.10267 226.176 8.012 225.728 8.012C225.312 8.012 224.907 8.09733 224.512 8.268C224.128 8.428 223.787 8.684 223.488 9.036C223.189 9.37733 222.949 9.82 222.768 10.364C222.597 10.8973 222.512 11.5427 222.512 12.3C222.512 13.2707 222.651 14.0547 222.928 14.652C223.216 15.2493 223.616 15.692 224.128 15.98C224.64 16.2573 225.232 16.396 225.904 16.396C226.555 16.396 227.077 16.2787 227.472 16.044C227.867 15.7987 228.16 15.4627 228.352 15.036C228.544 14.5987 228.656 14.0973 228.688 13.532L230 13.772C229.989 14.3053 229.904 14.812 229.744 15.292C229.584 15.772 229.339 16.1933 229.008 16.556C228.677 16.9187 228.251 17.2013 227.728 17.404C227.205 17.6067 226.576 17.708 225.84 17.708ZM236.01 17.708C235.306 17.708 234.687 17.6333 234.154 17.484C233.631 17.3347 233.188 17.116 232.826 16.828C232.474 16.5293 232.212 16.1667 232.042 15.74C231.871 15.3133 231.796 14.8173 231.818 14.252L233.146 13.964C233.103 14.5187 233.194 14.9827 233.418 15.356C233.642 15.7293 233.983 16.012 234.442 16.204C234.9 16.3853 235.439 16.476 236.058 16.476C236.655 16.476 237.162 16.4013 237.578 16.252C237.994 16.1027 238.303 15.8947 238.506 15.628C238.719 15.3613 238.826 15.0573 238.826 14.716C238.826 14.332 238.703 14.028 238.458 13.804C238.212 13.58 237.882 13.4093 237.466 13.292C237.06 13.164 236.607 13.0467 236.106 12.94C235.615 12.8333 235.124 12.7107 234.634 12.572C234.143 12.4333 233.7 12.2573 233.306 12.044C232.922 11.82 232.607 11.532 232.362 11.18C232.127 10.8173 232.01 10.3587 232.01 9.804C232.01 9.17467 232.164 8.63067 232.474 8.172C232.794 7.71333 233.242 7.36133 233.818 7.116C234.394 6.86 235.071 6.732 235.85 6.732C236.618 6.732 237.3 6.85467 237.898 7.1C238.506 7.34533 238.986 7.708 239.338 8.188C239.69 8.65733 239.876 9.23867 239.898 9.932L238.522 10.268C238.522 9.884 238.452 9.548 238.314 9.26C238.186 8.96133 238.004 8.72133 237.77 8.54C237.535 8.348 237.252 8.204 236.922 8.108C236.591 8.00133 236.228 7.948 235.834 7.948C235.354 7.948 234.932 8.02267 234.57 8.172C234.207 8.32133 233.924 8.524 233.722 8.78C233.519 9.036 233.418 9.34 233.418 9.692C233.418 10.108 233.562 10.4387 233.85 10.684C234.148 10.9187 234.532 11.1053 235.002 11.244C235.471 11.3827 235.972 11.5107 236.506 11.628C236.964 11.724 237.412 11.8413 237.85 11.98C238.298 12.108 238.703 12.284 239.066 12.508C239.428 12.7213 239.716 13.004 239.93 13.356C240.143 13.708 240.25 14.156 240.25 14.7C240.25 15.308 240.09 15.836 239.77 16.284C239.46 16.732 238.991 17.084 238.362 17.34C237.732 17.5853 236.948 17.708 236.01 17.708ZM246.338 17.708C245.634 17.708 245.015 17.6333 244.482 17.484C243.959 17.3347 243.516 17.116 243.154 16.828C242.802 16.5293 242.54 16.1667 242.37 15.74C242.199 15.3133 242.124 14.8173 242.146 14.252L243.474 13.964C243.431 14.5187 243.522 14.9827 243.746 15.356C243.97 15.7293 244.311 16.012 244.77 16.204C245.228 16.3853 245.767 16.476 246.386 16.476C246.983 16.476 247.49 16.4013 247.906 16.252C248.322 16.1027 248.631 15.8947 248.834 15.628C249.047 15.3613 249.154 15.0573 249.154 14.716C249.154 14.332 249.031 14.028 248.786 13.804C248.54 13.58 248.21 13.4093 247.794 13.292C247.388 13.164 246.935 13.0467 246.434 12.94C245.943 12.8333 245.452 12.7107 244.962 12.572C244.471 12.4333 244.028 12.2573 243.634 12.044C243.25 11.82 242.935 11.532 242.69 11.18C242.455 10.8173 242.338 10.3587 242.338 9.804C242.338 9.17467 242.492 8.63067 242.802 8.172C243.122 7.71333 243.57 7.36133 244.146 7.116C244.722 6.86 245.399 6.732 246.178 6.732C246.946 6.732 247.628 6.85467 248.226 7.1C248.834 7.34533 249.314 7.708 249.666 8.188C250.018 8.65733 250.204 9.23867 250.226 9.932L248.85 10.268C248.85 9.884 248.78 9.548 248.642 9.26C248.514 8.96133 248.332 8.72133 248.098 8.54C247.863 8.348 247.58 8.204 247.25 8.108C246.919 8.00133 246.556 7.948 246.162 7.948C245.682 7.948 245.26 8.02267 244.898 8.172C244.535 8.32133 244.252 8.524 244.05 8.78C243.847 9.036 243.746 9.34 243.746 9.692C243.746 10.108 243.89 10.4387 244.178 10.684C244.476 10.9187 244.86 11.1053 245.33 11.244C245.799 11.3827 246.3 11.5107 246.834 11.628C247.292 11.724 247.74 11.8413 248.178 11.98C248.626 12.108 249.031 12.284 249.394 12.508C249.756 12.7213 250.044 13.004 250.258 13.356C250.471 13.708 250.578 14.156 250.578 14.7C250.578 15.308 250.418 15.836 250.098 16.284C249.788 16.732 249.319 17.084 248.69 17.34C248.06 17.5853 247.276 17.708 246.338 17.708Z" fill="#0E1013"/>
<defs>
<clipPath id="clip0_3874_3566">
<rect width="24" height="24" fill="white"/>
</clipPath>
</defs>
</svg>
