<svg width="96" height="99" viewBox="0 0 96 99" fill="none" xmlns="http://www.w3.org/2000/svg">
<g clip-path="url(#clip0_3398_793)">
<path d="M52.1417 68.8555C51.85 68.8555 51.5 68.8555 51.2083 68.7388L33.5917 63.8388C32.1917 63.4305 31.1417 62.2055 31.025 60.8055L27.1167 16.7055C27.0583 15.7138 27.35 14.7805 27.9917 14.0221C28.6333 13.2638 29.5667 12.8555 30.5583 12.8555H73.7833C74.775 12.8555 75.7084 13.2638 76.35 14.0221C76.9917 14.7805 77.3417 15.7138 77.225 16.7055L73.3167 60.8055C73.2 62.2638 72.15 63.4888 70.75 63.8388L53.0167 68.7388C52.725 68.7971 52.375 68.8555 52.0833 68.8555H52.1417Z" fill="#F8F9FA"/>
<path d="M34.5255 60.4555L30.6172 16.3555H73.8422L69.9339 60.4555L52.2005 65.3555" fill="#E44D26"/>
<path d="M52.2031 61.6187V19.9688H69.8781L66.4948 57.5937" fill="#F16529"/>
<path d="M38.6172 25.3984H52.2089V30.8234H44.5672L45.0922 36.3651H52.2672V41.7318H40.1922M40.3672 44.4151H45.7922L46.2005 48.7318L52.2672 50.3651V56.0234L41.1839 52.9318" fill="#EBEBEB"/>
<path d="M65.7323 25.3984H52.199V30.8234H65.2656M64.7406 36.3068H52.199V41.7318H58.849L58.2073 48.7318L52.1406 50.3651V55.9651L63.224 52.8734" fill="#F8F9FA"/>
</g>
<path d="M33.6312 93.8555V81.9755H35.2872V93.8555H33.6312ZM25.7472 93.8555V81.9755H27.4032V93.8555H25.7472ZM26.5752 88.4915V87.0695H34.2972V88.4915H26.5752ZM40.8883 93.8555V81.9755H42.5443V93.8555H40.8883ZM37.2703 83.4155V81.9755H46.1623V83.4155H37.2703ZM48.1593 93.8555V81.9755H50.7153L54.6573 92.1275H54.7473L58.6713 81.9755H61.1373V93.8555H59.5713L59.6793 83.6495H59.5353L55.4493 93.8555H53.8293L49.7793 83.6315H49.6353L49.7433 93.8555H48.1593ZM64.2257 93.8555V81.9755H65.8817V93.8555H64.2257ZM64.7657 93.8555V92.4155H71.4257V93.8555H64.7657Z" fill="#F8F9FA"/>
<defs>
<clipPath id="clip0_3398_793">
<rect width="56" height="56" fill="white" transform="translate(24 12.8555)"/>
</clipPath>
</defs>
</svg>
