<svg width="96" height="99" viewBox="0 0 96 99" fill="none" xmlns="http://www.w3.org/2000/svg">
<g clip-path="url(#clip0_3398_799)">
<path d="M76.5 12.8555H27.5C25.567 12.8555 24 14.4225 24 16.3555V65.3555C24 67.2885 25.567 68.8555 27.5 68.8555H76.5C78.433 68.8555 80 67.2885 80 65.3555V16.3555C80 14.4225 78.433 12.8555 76.5 12.8555Z" fill="#F8F9FA"/>
<path d="M76.5 16.3555H27.5V65.3555H76.5V16.3555Z" fill="#F7DF1E"/>
<path d="M60.3911 54.624C61.3828 56.2573 62.6661 57.424 64.9411 57.424C67.2161 57.424 68.0911 56.4906 68.0911 55.149C68.0911 53.8073 66.8661 52.9906 64.7661 52.1156L63.5995 51.649C60.2745 50.249 58.0578 48.4406 58.0578 44.7073C58.0578 40.974 60.6828 38.6406 64.8245 38.6406C68.9661 38.6406 69.8411 39.6323 71.3578 42.3156L67.7995 44.5906C66.9828 43.1906 66.1661 42.6073 64.8245 42.6073C63.4828 42.6073 62.6078 43.4823 62.6078 44.5906C62.6078 45.699 63.4828 46.5156 65.4661 47.3906L66.6328 47.8573C70.5411 49.549 72.7578 51.2406 72.7578 55.0906C72.7578 58.9406 69.4911 61.5073 65.1161 61.5073C60.7411 61.5073 58.0578 59.4656 56.7161 56.7823L60.4495 54.624H60.3911ZM44.1161 55.0323C44.8161 56.3156 45.5161 57.424 47.0911 57.424C48.6661 57.424 49.5411 56.8406 49.5411 54.5073V38.874H54.1495V54.5656C54.1495 59.349 51.3495 61.5073 47.2661 61.5073C43.1828 61.5073 41.4328 59.5823 40.3828 57.3073L44.1161 55.0323Z" fill="#F8F9FA"/>
</g>
<path d="M5.39154 94.0175L5.13954 92.4515C5.27154 92.4755 5.39154 92.4875 5.49954 92.4875C5.60754 92.4875 5.70354 92.4875 5.78754 92.4875C6.43554 92.4875 6.92154 92.3855 7.24554 92.1815C7.58154 91.9775 7.80954 91.6715 7.92954 91.2635C8.04954 90.8435 8.10954 90.3275 8.10954 89.7155V81.9755H9.74754V89.7335C9.74754 90.5975 9.63354 91.3535 9.40554 92.0015C9.18954 92.6495 8.81154 93.1535 8.27154 93.5135C7.73154 93.8615 6.97554 94.0355 6.00354 94.0355C5.93154 94.0355 5.84754 94.0355 5.75154 94.0355C5.65554 94.0355 5.53554 94.0295 5.39154 94.0175ZM14.7642 94.0895C14.2602 94.0895 13.8042 93.9935 13.3962 93.8015C12.9882 93.5975 12.6642 93.3035 12.4242 92.9195C12.1842 92.5235 12.0642 92.0255 12.0642 91.4255C12.0642 90.9815 12.1422 90.5915 12.2982 90.2555C12.4662 89.9195 12.7182 89.6315 13.0542 89.3915C13.4022 89.1515 13.8462 88.9535 14.3862 88.7975C14.9262 88.6415 15.5862 88.5095 16.3662 88.4015C16.8102 88.3415 17.1702 88.2815 17.4462 88.2215C17.7342 88.1615 17.9442 88.0655 18.0762 87.9335C18.2082 87.7895 18.2742 87.5795 18.2742 87.3035C18.2742 86.8475 18.1182 86.4635 17.8062 86.1515C17.4942 85.8395 17.0022 85.6835 16.3302 85.6835C15.9822 85.6835 15.6282 85.7435 15.2682 85.8635C14.9082 85.9835 14.5902 86.1875 14.3142 86.4755C14.0502 86.7515 13.8822 87.1415 13.8102 87.6455L12.2982 87.1415C12.3942 86.7095 12.5502 86.3195 12.7662 85.9715C12.9942 85.6235 13.2822 85.3295 13.6302 85.0895C13.9782 84.8375 14.3802 84.6455 14.8362 84.5135C15.3042 84.3815 15.8202 84.3155 16.3842 84.3155C17.1642 84.3155 17.8122 84.4475 18.3282 84.7115C18.8562 84.9755 19.2462 85.3835 19.4982 85.9355C19.7622 86.4755 19.8942 87.1715 19.8942 88.0235V90.0935C19.8942 90.4655 19.9002 90.8735 19.9122 91.3175C19.9362 91.7495 19.9662 92.1875 20.0022 92.6315C20.0382 93.0635 20.0742 93.4715 20.1102 93.8555H18.5982C18.5622 93.4715 18.5262 93.0875 18.4902 92.7035C18.4662 92.3195 18.4482 91.9355 18.4362 91.5515H18.2022C18.0222 91.9955 17.7822 92.4095 17.4822 92.7935C17.1822 93.1775 16.8042 93.4895 16.3482 93.7295C15.9042 93.9695 15.3762 94.0895 14.7642 94.0895ZM15.2502 92.7575C15.5142 92.7575 15.7782 92.7155 16.0422 92.6315C16.3182 92.5475 16.5882 92.4095 16.8522 92.2175C17.1282 92.0255 17.3862 91.7795 17.6262 91.4795C17.8782 91.1795 18.1002 90.8195 18.2922 90.3995V88.5995L18.7602 88.6895C18.5682 88.8815 18.3102 89.0255 17.9862 89.1215C17.6742 89.2175 17.3262 89.2955 16.9422 89.3555C16.5582 89.4155 16.1742 89.4815 15.7902 89.5535C15.4062 89.6135 15.0522 89.7095 14.7282 89.8415C14.4162 89.9615 14.1642 90.1355 13.9722 90.3635C13.7802 90.5915 13.6842 90.9035 13.6842 91.2995C13.6842 91.7795 13.8282 92.1455 14.1162 92.3975C14.4042 92.6375 14.7822 92.7575 15.2502 92.7575ZM24.6632 93.8555L21.3332 84.5675H23.1512L25.6892 92.4695H25.9412L28.4612 84.5675H30.2432L26.9312 93.8555H24.6632ZM33.9947 94.0895C33.4907 94.0895 33.0347 93.9935 32.6267 93.8015C32.2187 93.5975 31.8947 93.3035 31.6547 92.9195C31.4147 92.5235 31.2947 92.0255 31.2947 91.4255C31.2947 90.9815 31.3727 90.5915 31.5287 90.2555C31.6967 89.9195 31.9487 89.6315 32.2847 89.3915C32.6327 89.1515 33.0767 88.9535 33.6167 88.7975C34.1567 88.6415 34.8167 88.5095 35.5967 88.4015C36.0407 88.3415 36.4007 88.2815 36.6767 88.2215C36.9647 88.1615 37.1747 88.0655 37.3067 87.9335C37.4387 87.7895 37.5047 87.5795 37.5047 87.3035C37.5047 86.8475 37.3487 86.4635 37.0367 86.1515C36.7247 85.8395 36.2327 85.6835 35.5607 85.6835C35.2127 85.6835 34.8587 85.7435 34.4987 85.8635C34.1387 85.9835 33.8207 86.1875 33.5447 86.4755C33.2807 86.7515 33.1127 87.1415 33.0407 87.6455L31.5287 87.1415C31.6247 86.7095 31.7807 86.3195 31.9967 85.9715C32.2247 85.6235 32.5127 85.3295 32.8607 85.0895C33.2087 84.8375 33.6107 84.6455 34.0667 84.5135C34.5347 84.3815 35.0507 84.3155 35.6147 84.3155C36.3947 84.3155 37.0427 84.4475 37.5587 84.7115C38.0867 84.9755 38.4767 85.3835 38.7287 85.9355C38.9927 86.4755 39.1247 87.1715 39.1247 88.0235V90.0935C39.1247 90.4655 39.1307 90.8735 39.1427 91.3175C39.1667 91.7495 39.1967 92.1875 39.2327 92.6315C39.2687 93.0635 39.3047 93.4715 39.3407 93.8555H37.8287C37.7927 93.4715 37.7567 93.0875 37.7207 92.7035C37.6967 92.3195 37.6787 91.9355 37.6667 91.5515H37.4327C37.2527 91.9955 37.0127 92.4095 36.7127 92.7935C36.4127 93.1775 36.0347 93.4895 35.5787 93.7295C35.1347 93.9695 34.6067 94.0895 33.9947 94.0895ZM34.4807 92.7575C34.7447 92.7575 35.0087 92.7155 35.2727 92.6315C35.5487 92.5475 35.8187 92.4095 36.0827 92.2175C36.3587 92.0255 36.6167 91.7795 36.8567 91.4795C37.1087 91.1795 37.3307 90.8195 37.5227 90.3995V88.5995L37.9907 88.6895C37.7987 88.8815 37.5407 89.0255 37.2167 89.1215C36.9047 89.2175 36.5567 89.2955 36.1727 89.3555C35.7887 89.4155 35.4047 89.4815 35.0207 89.5535C34.6367 89.6135 34.2827 89.7095 33.9587 89.8415C33.6467 89.9615 33.3947 90.1355 33.2027 90.3635C33.0107 90.5915 32.9147 90.9035 32.9147 91.2995C32.9147 91.7795 33.0587 92.1455 33.3467 92.3975C33.6347 92.6375 34.0127 92.7575 34.4807 92.7575ZM46.1035 94.0895C45.3115 94.0895 44.6155 94.0055 44.0155 93.8375C43.4275 93.6695 42.9295 93.4235 42.5215 93.0995C42.1255 92.7635 41.8315 92.3555 41.6395 91.8755C41.4475 91.3955 41.3635 90.8375 41.3875 90.2015L42.8815 89.8775C42.8335 90.5015 42.9355 91.0235 43.1875 91.4435C43.4395 91.8635 43.8235 92.1815 44.3395 92.3975C44.8555 92.6015 45.4615 92.7035 46.1575 92.7035C46.8295 92.7035 47.3995 92.6195 47.8675 92.4515C48.3355 92.2835 48.6835 92.0495 48.9115 91.7495C49.1515 91.4495 49.2715 91.1075 49.2715 90.7235C49.2715 90.2915 49.1335 89.9495 48.8575 89.6975C48.5815 89.4455 48.2095 89.2535 47.7415 89.1215C47.2855 88.9775 46.7755 88.8455 46.2115 88.7255C45.6595 88.6055 45.1075 88.4675 44.5555 88.3115C44.0035 88.1555 43.5055 87.9575 43.0615 87.7175C42.6295 87.4655 42.2755 87.1415 41.9995 86.7455C41.7355 86.3375 41.6035 85.8215 41.6035 85.1975C41.6035 84.4895 41.7775 83.8775 42.1255 83.3615C42.4855 82.8455 42.9895 82.4495 43.6375 82.1735C44.2855 81.8855 45.0475 81.7415 45.9235 81.7415C46.7875 81.7415 47.5555 81.8795 48.2275 82.1555C48.9115 82.4315 49.4515 82.8395 49.8475 83.3795C50.2435 83.9075 50.4535 84.5615 50.4775 85.3415L48.9295 85.7195C48.9295 85.2875 48.8515 84.9095 48.6955 84.5855C48.5515 84.2495 48.3475 83.9795 48.0835 83.7755C47.8195 83.5595 47.5015 83.3975 47.1295 83.2895C46.7575 83.1695 46.3495 83.1095 45.9055 83.1095C45.3655 83.1095 44.8915 83.1935 44.4835 83.3615C44.0755 83.5295 43.7575 83.7575 43.5295 84.0455C43.3015 84.3335 43.1875 84.6755 43.1875 85.0715C43.1875 85.5395 43.3495 85.9115 43.6735 86.1875C44.0095 86.4515 44.4415 86.6615 44.9695 86.8175C45.4975 86.9735 46.0615 87.1175 46.6615 87.2495C47.1775 87.3575 47.6815 87.4895 48.1735 87.6455C48.6775 87.7895 49.1335 87.9875 49.5415 88.2395C49.9495 88.4795 50.2735 88.7975 50.5135 89.1935C50.7535 89.5895 50.8735 90.0935 50.8735 90.7055C50.8735 91.3895 50.6935 91.9835 50.3335 92.4875C49.9855 92.9915 49.4575 93.3875 48.7495 93.6755C48.0415 93.9515 47.1595 94.0895 46.1035 94.0895ZM57.2412 94.0895C56.4252 94.0895 55.7292 93.9575 55.1532 93.6935C54.5892 93.4295 54.1272 93.0755 53.7672 92.6315C53.4192 92.1875 53.1612 91.6775 52.9932 91.1015C52.8372 90.5255 52.7592 89.9255 52.7592 89.3015C52.7592 88.6175 52.8492 87.9755 53.0292 87.3755C53.2092 86.7755 53.4792 86.2475 53.8392 85.7915C54.2112 85.3235 54.6672 84.9635 55.2072 84.7115C55.7592 84.4475 56.4012 84.3155 57.1332 84.3155C57.8412 84.3155 58.4652 84.4415 59.0052 84.6935C59.5452 84.9335 59.9832 85.2755 60.3192 85.7195C60.6672 86.1635 60.8892 86.6915 60.9852 87.3035L59.4192 87.7355C59.3952 87.3995 59.2932 87.0755 59.1132 86.7635C58.9452 86.4515 58.6932 86.1995 58.3572 86.0075C58.0212 85.8035 57.6072 85.7015 57.1152 85.7015C56.6472 85.7015 56.2452 85.7915 55.9092 85.9715C55.5852 86.1515 55.3092 86.4035 55.0812 86.7275C54.8652 87.0515 54.6972 87.4295 54.5772 87.8615C54.4692 88.2935 54.4152 88.7615 54.4152 89.2655C54.4152 89.9615 54.5112 90.5675 54.7032 91.0835C54.9072 91.5995 55.2192 92.0015 55.6392 92.2895C56.0592 92.5775 56.5992 92.7215 57.2592 92.7215C57.7512 92.7215 58.1712 92.6375 58.5192 92.4695C58.8672 92.2895 59.1432 92.0435 59.3472 91.7315C59.5512 91.4075 59.6832 91.0295 59.7432 90.5975L61.2552 90.9395C61.1712 91.4555 61.0152 91.9115 60.7872 92.3075C60.5592 92.7035 60.2712 93.0335 59.9232 93.2975C59.5752 93.5495 59.1732 93.7415 58.7172 93.8735C58.2732 94.0175 57.7812 94.0895 57.2412 94.0895ZM63.1241 93.8555V88.8155V84.5495H64.6001L64.4561 87.7895H64.7621C64.8701 87.0815 65.0381 86.4695 65.2661 85.9535C65.4941 85.4375 65.7941 85.0355 66.1661 84.7475C66.5501 84.4595 67.0241 84.3155 67.5881 84.3155C67.7081 84.3155 67.8461 84.3275 68.0021 84.3515C68.1581 84.3635 68.3381 84.4055 68.5421 84.4775L68.4521 86.1875C68.2721 86.1155 68.0921 86.0675 67.9121 86.0435C67.7321 86.0075 67.5581 85.9895 67.3901 85.9895C66.9221 85.9895 66.5141 86.1395 66.1661 86.4395C65.8301 86.7395 65.5481 87.1475 65.3201 87.6635C65.0921 88.1675 64.9061 88.7375 64.7621 89.3735V93.8555H63.1241ZM70.3316 93.8555V84.5495H71.9696V93.8555H70.3316ZM71.1596 82.9295C70.7756 82.9295 70.4876 82.8515 70.2956 82.6955C70.1036 82.5395 70.0076 82.3055 70.0076 81.9935C70.0076 81.6815 70.1036 81.4475 70.2956 81.2915C70.4876 81.1355 70.7696 81.0575 71.1416 81.0575C71.5256 81.0575 71.8136 81.1355 72.0056 81.2915C72.1976 81.4475 72.2936 81.6815 72.2936 81.9935C72.2936 82.2935 72.1976 82.5275 72.0056 82.6955C71.8136 82.8515 71.5316 82.9295 71.1596 82.9295ZM74.8136 96.7715V89.2115V84.5495H76.2896L76.1996 86.9435H76.4696C76.6136 86.4155 76.8116 85.9595 77.0636 85.5755C77.3276 85.1795 77.6636 84.8735 78.0716 84.6575C78.4796 84.4295 78.9716 84.3155 79.5476 84.3155C80.3996 84.3155 81.1076 84.5315 81.6716 84.9635C82.2476 85.3835 82.6796 85.9655 82.9676 86.7095C83.2556 87.4415 83.3996 88.2755 83.3996 89.2115C83.3996 90.1475 83.2556 90.9815 82.9676 91.7135C82.6796 92.4455 82.2536 93.0275 81.6896 93.4595C81.1376 93.8795 80.4596 94.0895 79.6556 94.0895C79.0076 94.0895 78.4676 93.9575 78.0356 93.6935C77.6156 93.4175 77.2796 93.0575 77.0276 92.6135C76.7756 92.1695 76.5776 91.7075 76.4336 91.2275H76.1276C76.1996 91.5515 76.2596 91.8875 76.3076 92.2355C76.3556 92.5835 76.3916 92.9315 76.4156 93.2795C76.4516 93.6155 76.4696 93.9395 76.4696 94.2515V96.7715H74.8136ZM79.2416 92.6675C79.7696 92.6675 80.2136 92.5175 80.5736 92.2175C80.9336 91.9055 81.2096 91.4855 81.4016 90.9575C81.5936 90.4295 81.6896 89.8355 81.6896 89.1755C81.6896 88.4675 81.5876 87.8615 81.3836 87.3575C81.1916 86.8535 80.9156 86.4635 80.5556 86.1875C80.1956 85.8995 79.7576 85.7555 79.2416 85.7555C78.7976 85.7555 78.4016 85.8575 78.0536 86.0615C77.7176 86.2535 77.4296 86.5175 77.1896 86.8535C76.9496 87.1775 76.7636 87.5375 76.6316 87.9335C76.5116 88.3175 76.4516 88.7015 76.4516 89.0855V89.3015C76.4516 89.5415 76.4876 89.8115 76.5596 90.1115C76.6316 90.3995 76.7396 90.6935 76.8836 90.9935C77.0276 91.2935 77.2076 91.5695 77.4236 91.8215C77.6516 92.0735 77.9156 92.2775 78.2156 92.4335C78.5156 92.5895 78.8576 92.6675 79.2416 92.6675ZM88.6628 94.0355C87.7988 94.0355 87.1568 93.8015 86.7368 93.3335C86.3168 92.8655 86.1068 92.1515 86.1068 91.1915V85.9175H84.7028L84.7208 84.5495H85.6028C85.9028 84.5495 86.1188 84.4955 86.2508 84.3875C86.3948 84.2795 86.4788 84.0995 86.5028 83.8475L86.6828 82.4435H87.6908V84.5495H90.3728V85.9355H87.6908V91.1555C87.6908 91.6355 87.7988 91.9835 88.0148 92.1995C88.2428 92.4035 88.5668 92.5055 88.9868 92.5055C89.2148 92.5055 89.4488 92.4755 89.6888 92.4155C89.9408 92.3555 90.1868 92.2355 90.4268 92.0555V93.6935C90.0788 93.8255 89.7548 93.9155 89.4548 93.9635C89.1668 94.0115 88.9028 94.0355 88.6628 94.0355Z" fill="#F8F9FA"/>
<defs>
<clipPath id="clip0_3398_799">
<rect width="56" height="56" fill="white" transform="translate(24 12.8555)"/>
</clipPath>
</defs>
</svg>
