<svg width="96" height="99" viewBox="0 0 96 99" fill="none" xmlns="http://www.w3.org/2000/svg">
<path fill-rule="evenodd" clip-rule="evenodd" d="M71.0837 39.4645C69.9756 39.4645 68.8733 38.9395 68.2318 38.0062L63.922 31.9453C63.1638 30.8953 63.0472 29.5011 63.6304 28.3344C63.8636 27.8678 64.1552 27.5178 64.5635 27.2261C63.6304 26.0594 62.2365 25.3594 60.6619 25.3594C59.0872 25.3594 56.527 26.8178 55.8854 28.9119C55.5938 29.8453 55.0106 30.6036 54.1942 31.012C53.6693 31.3036 53.1444 31.4203 52.5612 31.4203C51.978 31.4203 51.8613 31.4203 51.5114 31.2453C50.52 30.9536 49.4702 30.7203 48.4263 30.6036C47.3765 30.487 46.4434 29.962 45.866 29.1453C45.2887 28.3286 45.1079 27.2203 45.3412 26.2344C45.5161 25.4761 45.8077 24.7761 46.0993 24.0819C46.9158 22.2152 48.0239 20.5294 49.4761 19.071C50.9341 17.6127 52.6778 16.4518 54.5441 15.6935C56.4686 14.8768 58.5623 14.4102 60.7202 14.4102C62.878 14.4102 64.9717 14.8185 66.8963 15.6352C68.8209 16.4518 70.5063 17.5602 71.9643 19.0127C73.4223 20.4652 74.5829 22.1569 75.3411 24.0236C75.691 24.7819 75.9243 25.5986 76.1575 26.4094C77.2073 26.5844 78.0821 27.2844 78.6012 28.2178C79.1844 29.3844 79.126 30.7786 78.3096 31.8286L73.9997 37.8895C73.3582 38.8229 72.3084 39.3479 71.1478 39.3479L71.0895 39.4645H71.0837Z" fill="#F8F9FA"/>
<path fill-rule="evenodd" clip-rule="evenodd" d="M69.3305 67.1369C68.8056 67.1369 68.2224 67.0202 67.7559 66.7285C66.8811 66.2619 66.2396 65.4452 65.948 64.5177H54.3597C52.7268 64.5177 51.3329 63.4093 50.983 61.8402C50.6331 60.2651 51.3912 58.6376 52.8492 57.9376C52.9659 57.9376 53.0242 57.821 53.1408 57.821H53.2575C54.5988 57.1793 55.7594 56.3626 56.8675 55.3768C56.9841 55.2601 57.1591 55.1434 57.2757 54.9684L57.684 54.5601C57.8589 54.3851 58.0339 54.2101 58.1505 54.0351C58.7921 53.1601 59.8418 52.6934 60.8858 52.6934H66.0121C66.2454 51.7601 66.8869 50.9434 67.82 50.4826C68.3449 50.2492 68.8698 50.0742 69.3947 50.0742C69.9196 50.0742 70.8527 50.3076 71.4359 50.7159L78.5393 55.7851C79.4724 56.4268 79.9973 57.4768 79.9973 58.6376C79.9973 59.7985 79.4724 60.8485 78.5393 61.4901L71.4359 66.5594C70.8527 66.9677 70.0945 67.201 69.3947 67.201L69.3364 67.1427L69.3305 67.1369Z" fill="#F8F9FA"/>
<path fill-rule="evenodd" clip-rule="evenodd" d="M75.383 29.8506L71.0731 35.9115L66.7632 29.8506H69.1485C68.9736 25.3647 65.2469 21.7538 60.7038 21.7538C56.1606 21.7538 53.6004 24.3147 52.6089 27.8147C51.3842 27.4064 50.0487 27.173 48.7656 27.0564C48.9406 26.473 49.1155 25.948 49.3488 25.3647C49.9903 23.9064 50.8652 22.5705 52.0257 21.4038C53.1338 20.2955 54.4693 19.3621 55.9857 18.7846C57.502 18.143 59.1291 17.793 60.8204 17.793C62.5117 17.793 64.1388 18.143 65.6552 18.7846C67.1132 19.4263 68.4487 20.3013 69.6151 21.4038C70.7232 22.5122 71.6563 23.848 72.292 25.3647C72.8752 26.7647 73.2251 28.2756 73.2834 29.8506H75.6687H75.3771H75.383Z" fill="#FF7F69"/>
<path fill-rule="evenodd" clip-rule="evenodd" d="M69.3322 63.6401V61.0209H54.3672C54.4838 61.0209 54.6005 60.9043 54.6588 60.8459C56.2918 60.0876 57.8022 59.0376 59.0853 57.8184C59.2603 57.6434 59.4352 57.4684 59.6102 57.3517C59.7851 57.1767 59.9601 57.0017 60.1351 56.7684C60.3683 56.5351 60.5433 56.3017 60.7766 56.0684H69.2797V53.4492L76.3831 58.5184L69.2797 63.5876L69.338 63.646L69.3322 63.6401Z" fill="#7D65F5"/>
<path fill-rule="evenodd" clip-rule="evenodd" d="M27.5123 64.5702C25.5877 64.5702 24.0189 62.9952 24.0189 61.076V56.1235C24.0189 54.1985 25.5936 52.6293 27.5123 52.6293H28.7953L24.6604 46.8601C23.9023 45.8101 23.7856 44.4159 24.3688 43.2492C24.8937 42.1992 25.9435 41.4992 27.1041 41.3825C27.3373 39.8659 27.8039 38.4133 28.3871 37.0133C29.4369 34.5691 30.889 32.4108 32.697 30.5499C34.5632 28.6833 36.7152 27.2308 39.1588 26.2391C41.6608 25.1891 44.2852 24.6641 47.0204 24.6641C49.7556 24.6641 48.0118 24.6641 48.595 24.7224C50.228 24.8391 51.7968 25.1891 53.3131 25.6557C53.9547 25.8307 54.4212 26.0641 54.9461 26.2974C57.3314 27.2891 59.4893 28.7416 61.3497 30.6083C63.2101 32.475 64.6681 34.6275 65.6595 37.0717C66.7093 39.5742 67.2342 42.1992 67.2342 44.9351C67.2342 47.6709 66.7093 50.2959 65.6595 52.7985C64.7847 54.951 63.5075 56.876 61.9329 58.5677C61.9329 58.5677 61.3497 59.2094 61.2913 59.2094C61.1747 59.326 60.7665 59.7344 60.7081 59.7927C59.1918 61.1927 57.5647 62.2952 55.6984 63.1702C55.4652 63.2869 55.2319 63.4036 54.9403 63.5202H54.8236C53.1324 64.2202 51.3303 64.6286 49.4057 64.6286H27.5123V64.5702ZM47.9594 52.6293C52.2109 52.6293 55.7626 49.1934 55.8209 44.9409V44.8242C55.8209 39.9884 51.9193 36.0858 47.0845 36.0858C42.2498 36.0858 40.2727 38.355 38.9314 41.5634C39.6895 41.855 40.3894 42.4384 40.7393 43.1967C41.3225 44.3634 41.2642 45.7576 40.4477 46.8076L36.3128 52.5768H47.901L47.9594 52.6351V52.6293Z" fill="#F8F9FA"/>
<path fill-rule="evenodd" clip-rule="evenodd" d="M63.8024 44.8237C63.8024 47.0929 63.3359 49.2512 62.4611 51.3454C61.7029 53.0954 60.6532 54.7229 59.3759 56.1229C59.201 56.2979 59.026 56.4729 58.8511 56.6479L58.3845 57.1146C57.1598 58.2813 55.7076 59.2146 54.1913 59.9671C53.958 60.0838 53.783 60.1421 53.5498 60.2588C52.2667 60.7838 50.9312 61.0755 49.5315 61.0755H27.5156V56.1229H47.9569C54.133 56.1229 59.1952 51.1704 59.3118 44.9987V44.8237C59.3118 38.0686 53.8355 32.5911 47.082 32.5911C40.3286 32.5911 34.8523 38.0686 34.8523 44.8237H37.7042L32.6361 51.9287L27.5681 44.8237H30.42C30.42 42.5545 30.8865 40.3961 31.7613 38.302C32.6361 36.3186 33.8025 34.5161 35.3714 32.9994C36.8877 31.4827 38.6898 30.2636 40.6727 29.3886C42.7139 28.5135 44.9242 28.0469 47.1929 28.0469C49.4615 28.0469 48.0677 28.0469 48.5342 28.0469C49.8756 28.1635 51.1528 28.3969 52.3775 28.8052C52.8441 28.9802 53.2523 29.0969 53.7189 29.3302C55.7018 30.2052 57.5039 31.3719 59.0202 32.9411C60.5365 34.4578 61.7554 36.2603 62.6302 38.2436C63.505 40.2853 63.9716 42.4962 63.9716 44.7653L63.7966 44.8237H63.8024Z" fill="#F565CB"/>
<path d="M26.082 94.0895C25.29 94.0895 24.594 94.0055 23.994 93.8375C23.406 93.6695 22.908 93.4235 22.5 93.0995C22.104 92.7635 21.81 92.3555 21.618 91.8755C21.426 91.3955 21.342 90.8375 21.366 90.2015L22.86 89.8775C22.812 90.5015 22.914 91.0235 23.166 91.4435C23.418 91.8635 23.802 92.1815 24.318 92.3975C24.834 92.6015 25.44 92.7035 26.136 92.7035C26.808 92.7035 27.378 92.6195 27.846 92.4515C28.314 92.2835 28.662 92.0495 28.89 91.7495C29.13 91.4495 29.25 91.1075 29.25 90.7235C29.25 90.2915 29.112 89.9495 28.836 89.6975C28.56 89.4455 28.188 89.2535 27.72 89.1215C27.264 88.9775 26.754 88.8455 26.19 88.7255C25.638 88.6055 25.086 88.4675 24.534 88.3115C23.982 88.1555 23.484 87.9575 23.04 87.7175C22.608 87.4655 22.254 87.1415 21.978 86.7455C21.714 86.3375 21.582 85.8215 21.582 85.1975C21.582 84.4895 21.756 83.8775 22.104 83.3615C22.464 82.8455 22.968 82.4495 23.616 82.1735C24.264 81.8855 25.026 81.7415 25.902 81.7415C26.766 81.7415 27.534 81.8795 28.206 82.1555C28.89 82.4315 29.43 82.8395 29.826 83.3795C30.222 83.9075 30.432 84.5615 30.456 85.3415L28.908 85.7195C28.908 85.2875 28.83 84.9095 28.674 84.5855C28.53 84.2495 28.326 83.9795 28.062 83.7755C27.798 83.5595 27.48 83.3975 27.108 83.2895C26.736 83.1695 26.328 83.1095 25.884 83.1095C25.344 83.1095 24.87 83.1935 24.462 83.3615C24.054 83.5295 23.736 83.7575 23.508 84.0455C23.28 84.3335 23.166 84.6755 23.166 85.0715C23.166 85.5395 23.328 85.9115 23.652 86.1875C23.988 86.4515 24.42 86.6615 24.948 86.8175C25.476 86.9735 26.04 87.1175 26.64 87.2495C27.156 87.3575 27.66 87.4895 28.152 87.6455C28.656 87.7895 29.112 87.9875 29.52 88.2395C29.928 88.4795 30.252 88.7975 30.492 89.1935C30.732 89.5895 30.852 90.0935 30.852 90.7055C30.852 91.3895 30.672 91.9835 30.312 92.4875C29.964 92.9915 29.436 93.3875 28.728 93.6755C28.02 93.9515 27.138 94.0895 26.082 94.0895ZM37.2198 94.0895C36.4038 94.0895 35.7078 93.9575 35.1318 93.6935C34.5678 93.4295 34.1058 93.0755 33.7458 92.6315C33.3978 92.1875 33.1398 91.6775 32.9718 91.1015C32.8158 90.5255 32.7378 89.9255 32.7378 89.3015C32.7378 88.6175 32.8278 87.9755 33.0078 87.3755C33.1878 86.7755 33.4578 86.2475 33.8178 85.7915C34.1898 85.3235 34.6458 84.9635 35.1858 84.7115C35.7378 84.4475 36.3798 84.3155 37.1118 84.3155C37.8198 84.3155 38.4438 84.4415 38.9838 84.6935C39.5238 84.9335 39.9618 85.2755 40.2978 85.7195C40.6458 86.1635 40.8678 86.6915 40.9638 87.3035L39.3978 87.7355C39.3738 87.3995 39.2718 87.0755 39.0918 86.7635C38.9238 86.4515 38.6718 86.1995 38.3358 86.0075C37.9998 85.8035 37.5858 85.7015 37.0938 85.7015C36.6258 85.7015 36.2238 85.7915 35.8878 85.9715C35.5638 86.1515 35.2878 86.4035 35.0598 86.7275C34.8438 87.0515 34.6758 87.4295 34.5558 87.8615C34.4478 88.2935 34.3938 88.7615 34.3938 89.2655C34.3938 89.9615 34.4898 90.5675 34.6818 91.0835C34.8858 91.5995 35.1978 92.0015 35.6178 92.2895C36.0378 92.5775 36.5778 92.7215 37.2378 92.7215C37.7298 92.7215 38.1498 92.6375 38.4978 92.4695C38.8458 92.2895 39.1218 92.0435 39.3258 91.7315C39.5298 91.4075 39.6618 91.0295 39.7218 90.5975L41.2338 90.9395C41.1498 91.4555 40.9938 91.9115 40.7658 92.3075C40.5378 92.7035 40.2498 93.0335 39.9018 93.2975C39.5538 93.5495 39.1518 93.7415 38.6958 93.8735C38.2518 94.0175 37.7598 94.0895 37.2198 94.0895ZM43.1027 93.8555V88.8155V84.5495H44.5787L44.4347 87.7895H44.7407C44.8487 87.0815 45.0167 86.4695 45.2447 85.9535C45.4727 85.4375 45.7727 85.0355 46.1447 84.7475C46.5287 84.4595 47.0027 84.3155 47.5667 84.3155C47.6867 84.3155 47.8247 84.3275 47.9807 84.3515C48.1367 84.3635 48.3167 84.4055 48.5207 84.4775L48.4307 86.1875C48.2507 86.1155 48.0707 86.0675 47.8907 86.0435C47.7107 86.0075 47.5367 85.9895 47.3687 85.9895C46.9007 85.9895 46.4927 86.1395 46.1447 86.4395C45.8087 86.7395 45.5267 87.1475 45.2987 87.6635C45.0707 88.1675 44.8847 88.7375 44.7407 89.3735V93.8555H43.1027ZM53.368 94.0895C52.336 94.0895 51.556 93.7295 51.028 93.0095C50.5 92.2895 50.236 91.2155 50.236 89.7875V84.5495H51.892V89.6435C51.892 90.6515 52.048 91.4015 52.36 91.8935C52.672 92.3855 53.164 92.6315 53.836 92.6315C54.208 92.6315 54.538 92.5415 54.826 92.3615C55.126 92.1815 55.39 91.9235 55.618 91.5875C55.846 91.2515 56.032 90.8555 56.176 90.3995C56.32 89.9315 56.416 89.4275 56.464 88.8875V84.5495H58.102V89.9675V93.8555H56.644L56.788 90.8675H56.518C56.362 91.6115 56.14 92.2235 55.852 92.7035C55.576 93.1715 55.228 93.5195 54.808 93.7475C54.388 93.9755 53.908 94.0895 53.368 94.0895ZM60.9445 93.8555V88.0955V84.5495H62.4025L62.2405 87.5015H62.5465C62.7025 86.7935 62.9125 86.2055 63.1765 85.7375C63.4405 85.2575 63.7645 84.9035 64.1485 84.6755C64.5445 84.4355 64.9945 84.3155 65.4985 84.3155C66.0985 84.3155 66.5905 84.4655 66.9745 84.7655C67.3585 85.0535 67.6405 85.4315 67.8205 85.8995C68.0125 86.3675 68.1085 86.8835 68.1085 87.4475H68.3965C68.5285 86.7755 68.7325 86.2055 69.0085 85.7375C69.2845 85.2695 69.6265 84.9155 70.0345 84.6755C70.4425 84.4355 70.9105 84.3155 71.4385 84.3155C71.9185 84.3155 72.3385 84.4115 72.6985 84.6035C73.0585 84.7955 73.3645 85.0835 73.6165 85.4675C73.8685 85.8395 74.0545 86.3015 74.1745 86.8535C74.2945 87.4055 74.3545 88.0415 74.3545 88.7615V93.8555H72.7165V88.9775C72.7165 88.2695 72.6505 87.6815 72.5185 87.2135C72.3865 86.7335 72.1885 86.3795 71.9245 86.1515C71.6725 85.9115 71.3485 85.7915 70.9525 85.7915C70.5085 85.7915 70.1065 85.9475 69.7465 86.2595C69.3985 86.5595 69.1105 86.9855 68.8825 87.5375C68.6665 88.0775 68.5225 88.6955 68.4505 89.3915V93.8555H66.8485V89.1395C66.8485 88.3955 66.7825 87.7775 66.6505 87.2855C66.5185 86.7935 66.3205 86.4215 66.0565 86.1695C65.8045 85.9175 65.4745 85.7915 65.0665 85.7915C64.5865 85.7915 64.1725 85.9595 63.8245 86.2955C63.4765 86.6195 63.1945 87.0575 62.9785 87.6095C62.7745 88.1615 62.6425 88.7795 62.5825 89.4635V93.8555H60.9445Z" fill="#F8F9FA"/>
</svg>
