<svg width="96" height="99" viewBox="0 0 96 99" fill="none" xmlns="http://www.w3.org/2000/svg">
<g clip-path="url(#clip0_3398_802)">
<path d="M71.7167 12.8555H32.2833C27.7086 12.8555 24 16.564 24 21.1388V60.5721C24 65.1469 27.7086 68.8555 32.2833 68.8555H71.7167C76.2914 68.8555 80 65.1469 80 60.5721V21.1388C80 16.564 76.2914 12.8555 71.7167 12.8555Z" fill="#F8F9FA"/>
<path d="M71.7167 16.3555H32.2833C29.6416 16.3555 27.5 18.497 27.5 21.1388V60.5721C27.5 63.2139 29.6416 65.3555 32.2833 65.3555H71.7167C74.3584 65.3555 76.5 63.2139 76.5 60.5721V21.1388C76.5 18.497 74.3584 16.3555 71.7167 16.3555Z" fill="#3178C6"/>
<path d="M71.7167 16.3555H32.2833C29.6416 16.3555 27.5 18.497 27.5 21.1388V60.5721C27.5 63.2139 29.6416 65.3555 32.2833 65.3555H71.7167C74.3584 65.3555 76.5 63.2139 76.5 60.5721V21.1388C76.5 18.497 74.3584 16.3555 71.7167 16.3555Z" fill="#3178C6"/>
<path fill-rule="evenodd" clip-rule="evenodd" d="M57.8484 55.3174V60.1008C58.6068 60.5091 59.5401 60.8008 60.5901 60.9758C61.6401 61.1508 62.7484 61.2674 63.9734 61.2674C65.1984 61.2674 66.1901 61.1508 67.2401 60.9174C68.2901 60.6841 69.1651 60.3341 69.9818 59.8091C70.7401 59.2841 71.3818 58.6424 71.8484 57.8258C72.3151 57.0091 72.5484 56.0174 72.5484 54.7924C72.5484 53.5674 72.4318 53.1591 72.1401 52.5174C71.8484 51.8758 71.4984 51.2924 71.0318 50.7674C70.5651 50.2424 69.9818 49.7758 69.2818 49.4258C68.5818 49.0758 67.8234 48.6674 66.9484 48.2591C66.3068 48.0258 65.7818 47.7341 65.2568 47.5008C64.7318 47.2674 64.3234 47.0341 63.9734 46.7424C63.6234 46.5091 63.3318 46.2174 63.1568 45.9258C62.9818 45.6341 62.8651 45.3424 62.8651 44.9341C62.8651 44.5258 62.9234 44.2924 63.0984 44.0591C63.2734 43.8258 63.5068 43.5924 63.7984 43.3591C64.0901 43.1841 64.4984 43.0091 64.9651 42.8924C65.4318 42.7758 65.8984 42.7174 66.4818 42.7174C67.0651 42.7174 67.2984 42.7174 67.7651 42.8341C68.2318 42.8924 68.6401 43.0091 69.1068 43.1258C69.5734 43.2424 69.9818 43.4174 70.3901 43.5924C70.7984 43.7674 71.2068 44.0008 71.5568 44.2341V39.7424C70.8568 39.4508 70.0401 39.2758 69.1651 39.1008C68.2901 38.9258 67.2984 38.9258 66.1901 38.9258C65.0818 38.9258 63.9734 39.0424 62.9818 39.2758C61.9901 39.5091 61.0568 39.9174 60.2984 40.4424C59.5401 40.9674 58.8984 41.6091 58.4901 42.4258C58.0234 43.2424 57.7901 44.1758 57.7901 45.2841C57.7901 46.3924 58.1984 47.9091 59.0151 48.9591C59.8318 49.9508 61.1151 50.8258 62.7484 51.5258C63.3901 51.8174 64.0318 52.0508 64.6151 52.3424C65.1984 52.6341 65.6651 52.8674 66.0734 53.1591C66.4818 53.4508 66.8318 53.7424 67.0651 54.0924C67.2984 54.4424 67.4151 54.7924 67.4151 55.2008C67.4151 55.6091 67.3568 55.7841 67.1818 56.0758C67.0068 56.3674 66.8318 56.5424 66.4818 56.7758C66.1318 57.0091 65.7818 57.1258 65.3151 57.2424C64.8484 57.3591 64.3234 57.4174 63.7401 57.4174C62.6901 57.4174 61.6984 57.2424 60.6484 56.8924C59.6568 56.5424 58.6651 55.9591 57.7901 55.2591L57.8484 55.3174ZM49.7984 43.5341H55.9234V39.6258H38.7734V43.5341H44.8984V61.0341H49.7401V43.5341H49.7984Z" fill="#F8F9FA"/>
</g>
<path d="M6.33851 93.8555V81.9755H7.99451V93.8555H6.33851ZM2.72051 83.4155V81.9755H11.6125V83.4155H2.72051ZM16.2163 96.9875C15.7243 96.9875 15.2383 96.9275 14.7583 96.8075C14.2903 96.6995 13.8583 96.5315 13.4623 96.3035C13.0663 96.0755 12.7423 95.7815 12.4903 95.4215L13.3183 94.2335C13.5943 94.6415 13.9843 94.9535 14.4883 95.1695C14.9923 95.3855 15.5443 95.4935 16.1443 95.4935C16.8163 95.4935 17.3743 95.3435 17.8183 95.0435C18.2743 94.7555 18.6163 94.3055 18.8443 93.6935C19.0723 93.0695 19.1923 92.2955 19.2043 91.3715L19.4023 89.4995H19.0603C18.9283 90.3755 18.7183 91.0775 18.4303 91.6055C18.1543 92.1215 17.8063 92.4935 17.3863 92.7215C16.9783 92.9495 16.5043 93.0635 15.9643 93.0635C15.2923 93.0635 14.7223 92.8955 14.2543 92.5595C13.7983 92.2115 13.4503 91.7075 13.2103 91.0475C12.9703 90.3755 12.8503 89.5595 12.8503 88.5995V84.5495H14.4883V88.2395C14.4883 89.4035 14.6503 90.2615 14.9743 90.8135C15.3103 91.3535 15.8083 91.6235 16.4683 91.6235C16.8283 91.6235 17.1523 91.5335 17.4403 91.3535C17.7283 91.1735 17.9743 90.9095 18.1783 90.5615C18.3943 90.2135 18.5623 89.7755 18.6823 89.2475C18.8143 88.7075 18.8983 88.0835 18.9343 87.3755V84.5495H20.5723V91.4615C20.5723 92.1935 20.5183 92.8535 20.4103 93.4415C20.3023 94.0295 20.1283 94.5395 19.8883 94.9715C19.6603 95.4155 19.3723 95.7875 19.0243 96.0875C18.6763 96.3875 18.2683 96.6095 17.8003 96.7535C17.3323 96.9095 16.8043 96.9875 16.2163 96.9875ZM23.3976 96.7715V89.2115V84.5495H24.8736L24.7836 86.9435H25.0536C25.1976 86.4155 25.3956 85.9595 25.6476 85.5755C25.9116 85.1795 26.2476 84.8735 26.6556 84.6575C27.0636 84.4295 27.5556 84.3155 28.1316 84.3155C28.9836 84.3155 29.6916 84.5315 30.2556 84.9635C30.8316 85.3835 31.2636 85.9655 31.5516 86.7095C31.8396 87.4415 31.9836 88.2755 31.9836 89.2115C31.9836 90.1475 31.8396 90.9815 31.5516 91.7135C31.2636 92.4455 30.8376 93.0275 30.2736 93.4595C29.7216 93.8795 29.0436 94.0895 28.2396 94.0895C27.5916 94.0895 27.0516 93.9575 26.6196 93.6935C26.1996 93.4175 25.8636 93.0575 25.6116 92.6135C25.3596 92.1695 25.1616 91.7075 25.0176 91.2275H24.7116C24.7836 91.5515 24.8436 91.8875 24.8916 92.2355C24.9396 92.5835 24.9756 92.9315 24.9996 93.2795C25.0356 93.6155 25.0536 93.9395 25.0536 94.2515V96.7715H23.3976ZM27.8256 92.6675C28.3536 92.6675 28.7976 92.5175 29.1576 92.2175C29.5176 91.9055 29.7936 91.4855 29.9856 90.9575C30.1776 90.4295 30.2736 89.8355 30.2736 89.1755C30.2736 88.4675 30.1716 87.8615 29.9676 87.3575C29.7756 86.8535 29.4996 86.4635 29.1396 86.1875C28.7796 85.8995 28.3416 85.7555 27.8256 85.7555C27.3816 85.7555 26.9856 85.8575 26.6376 86.0615C26.3016 86.2535 26.0136 86.5175 25.7736 86.8535C25.5336 87.1775 25.3476 87.5375 25.2156 87.9335C25.0956 88.3175 25.0356 88.7015 25.0356 89.0855V89.3015C25.0356 89.5415 25.0716 89.8115 25.1436 90.1115C25.2156 90.3995 25.3236 90.6935 25.4676 90.9935C25.6116 91.2935 25.7916 91.5695 26.0076 91.8215C26.2356 92.0735 26.4996 92.2775 26.7996 92.4335C27.0996 92.5895 27.4416 92.6675 27.8256 92.6675ZM38.3623 94.0895C37.6303 94.0895 36.9823 93.9815 36.4183 93.7655C35.8663 93.5375 35.3983 93.2135 35.0143 92.7935C34.6303 92.3735 34.3423 91.8755 34.1503 91.2995C33.9583 90.7235 33.8623 90.0755 33.8623 89.3555C33.8623 88.6235 33.9583 87.9515 34.1503 87.3395C34.3423 86.7275 34.6243 86.1935 34.9963 85.7375C35.3683 85.2815 35.8243 84.9335 36.3643 84.6935C36.9043 84.4415 37.5223 84.3155 38.2183 84.3155C38.8303 84.3155 39.3883 84.4175 39.8923 84.6215C40.3963 84.8255 40.8223 85.1435 41.1703 85.5755C41.5303 85.9955 41.8003 86.5295 41.9803 87.1775C42.1603 87.8135 42.2323 88.5635 42.1963 89.4275L34.8883 89.4815V88.3655L41.2063 88.3115L40.6483 89.0675C40.7083 88.3115 40.6363 87.6875 40.4323 87.1955C40.2283 86.7035 39.9343 86.3315 39.5503 86.0795C39.1783 85.8275 38.7343 85.7015 38.2183 85.7015C37.6663 85.7015 37.1803 85.8455 36.7603 86.1335C36.3403 86.4215 36.0163 86.8355 35.7883 87.3755C35.5723 87.9155 35.4643 88.5695 35.4643 89.3375C35.4643 90.4415 35.7103 91.2875 36.2023 91.8755C36.6943 92.4515 37.4263 92.7395 38.3983 92.7395C38.7703 92.7395 39.0943 92.6975 39.3703 92.6135C39.6583 92.5175 39.8983 92.3915 40.0903 92.2355C40.2943 92.0675 40.4563 91.8755 40.5763 91.6595C40.7083 91.4435 40.8103 91.2095 40.8823 90.9575L42.3223 91.2995C42.2143 91.7315 42.0463 92.1215 41.8183 92.4695C41.6023 92.8055 41.3263 93.0935 40.9903 93.3335C40.6663 93.5735 40.2883 93.7595 39.8563 93.8915C39.4243 94.0235 38.9263 94.0895 38.3623 94.0895ZM48.8105 94.0895C48.0185 94.0895 47.3225 94.0055 46.7225 93.8375C46.1345 93.6695 45.6365 93.4235 45.2285 93.0995C44.8325 92.7635 44.5385 92.3555 44.3465 91.8755C44.1545 91.3955 44.0705 90.8375 44.0945 90.2015L45.5885 89.8775C45.5405 90.5015 45.6425 91.0235 45.8945 91.4435C46.1465 91.8635 46.5305 92.1815 47.0465 92.3975C47.5625 92.6015 48.1685 92.7035 48.8645 92.7035C49.5365 92.7035 50.1065 92.6195 50.5745 92.4515C51.0425 92.2835 51.3905 92.0495 51.6185 91.7495C51.8585 91.4495 51.9785 91.1075 51.9785 90.7235C51.9785 90.2915 51.8405 89.9495 51.5645 89.6975C51.2885 89.4455 50.9165 89.2535 50.4485 89.1215C49.9925 88.9775 49.4825 88.8455 48.9185 88.7255C48.3665 88.6055 47.8145 88.4675 47.2625 88.3115C46.7105 88.1555 46.2125 87.9575 45.7685 87.7175C45.3365 87.4655 44.9825 87.1415 44.7065 86.7455C44.4425 86.3375 44.3105 85.8215 44.3105 85.1975C44.3105 84.4895 44.4845 83.8775 44.8325 83.3615C45.1925 82.8455 45.6965 82.4495 46.3445 82.1735C46.9925 81.8855 47.7545 81.7415 48.6305 81.7415C49.4945 81.7415 50.2625 81.8795 50.9345 82.1555C51.6185 82.4315 52.1585 82.8395 52.5545 83.3795C52.9505 83.9075 53.1605 84.5615 53.1845 85.3415L51.6365 85.7195C51.6365 85.2875 51.5585 84.9095 51.4025 84.5855C51.2585 84.2495 51.0545 83.9795 50.7905 83.7755C50.5265 83.5595 50.2085 83.3975 49.8365 83.2895C49.4645 83.1695 49.0565 83.1095 48.6125 83.1095C48.0725 83.1095 47.5985 83.1935 47.1905 83.3615C46.7825 83.5295 46.4645 83.7575 46.2365 84.0455C46.0085 84.3335 45.8945 84.6755 45.8945 85.0715C45.8945 85.5395 46.0565 85.9115 46.3805 86.1875C46.7165 86.4515 47.1485 86.6615 47.6765 86.8175C48.2045 86.9735 48.7685 87.1175 49.3685 87.2495C49.8845 87.3575 50.3885 87.4895 50.8805 87.6455C51.3845 87.7895 51.8405 87.9875 52.2485 88.2395C52.6565 88.4795 52.9805 88.7975 53.2205 89.1935C53.4605 89.5895 53.5805 90.0935 53.5805 90.7055C53.5805 91.3895 53.4005 91.9835 53.0405 92.4875C52.6925 92.9915 52.1645 93.3875 51.4565 93.6755C50.7485 93.9515 49.8665 94.0895 48.8105 94.0895ZM59.9483 94.0895C59.1323 94.0895 58.4363 93.9575 57.8603 93.6935C57.2963 93.4295 56.8343 93.0755 56.4743 92.6315C56.1263 92.1875 55.8683 91.6775 55.7003 91.1015C55.5443 90.5255 55.4663 89.9255 55.4663 89.3015C55.4663 88.6175 55.5563 87.9755 55.7363 87.3755C55.9163 86.7755 56.1863 86.2475 56.5463 85.7915C56.9183 85.3235 57.3743 84.9635 57.9143 84.7115C58.4663 84.4475 59.1083 84.3155 59.8403 84.3155C60.5483 84.3155 61.1723 84.4415 61.7123 84.6935C62.2523 84.9335 62.6903 85.2755 63.0263 85.7195C63.3743 86.1635 63.5963 86.6915 63.6923 87.3035L62.1263 87.7355C62.1023 87.3995 62.0003 87.0755 61.8203 86.7635C61.6523 86.4515 61.4003 86.1995 61.0643 86.0075C60.7283 85.8035 60.3143 85.7015 59.8223 85.7015C59.3543 85.7015 58.9523 85.7915 58.6163 85.9715C58.2923 86.1515 58.0163 86.4035 57.7883 86.7275C57.5723 87.0515 57.4043 87.4295 57.2843 87.8615C57.1763 88.2935 57.1223 88.7615 57.1223 89.2655C57.1223 89.9615 57.2183 90.5675 57.4103 91.0835C57.6143 91.5995 57.9263 92.0015 58.3463 92.2895C58.7663 92.5775 59.3063 92.7215 59.9663 92.7215C60.4583 92.7215 60.8783 92.6375 61.2263 92.4695C61.5743 92.2895 61.8503 92.0435 62.0543 91.7315C62.2583 91.4075 62.3903 91.0295 62.4503 90.5975L63.9623 90.9395C63.8783 91.4555 63.7223 91.9115 63.4943 92.3075C63.2663 92.7035 62.9783 93.0335 62.6303 93.2975C62.2823 93.5495 61.8803 93.7415 61.4243 93.8735C60.9803 94.0175 60.4883 94.0895 59.9483 94.0895ZM65.8312 93.8555V88.8155V84.5495H67.3072L67.1632 87.7895H67.4692C67.5772 87.0815 67.7452 86.4695 67.9732 85.9535C68.2012 85.4375 68.5012 85.0355 68.8732 84.7475C69.2572 84.4595 69.7312 84.3155 70.2952 84.3155C70.4152 84.3155 70.5532 84.3275 70.7092 84.3515C70.8652 84.3635 71.0452 84.4055 71.2492 84.4775L71.1592 86.1875C70.9792 86.1155 70.7992 86.0675 70.6192 86.0435C70.4392 86.0075 70.2652 85.9895 70.0972 85.9895C69.6292 85.9895 69.2212 86.1395 68.8732 86.4395C68.5372 86.7395 68.2552 87.1475 68.0272 87.6635C67.7992 88.1675 67.6132 88.7375 67.4692 89.3735V93.8555H65.8312ZM73.0386 93.8555V84.5495H74.6766V93.8555H73.0386ZM73.8666 82.9295C73.4826 82.9295 73.1946 82.8515 73.0026 82.6955C72.8106 82.5395 72.7146 82.3055 72.7146 81.9935C72.7146 81.6815 72.8106 81.4475 73.0026 81.2915C73.1946 81.1355 73.4766 81.0575 73.8486 81.0575C74.2326 81.0575 74.5206 81.1355 74.7126 81.2915C74.9046 81.4475 75.0006 81.6815 75.0006 81.9935C75.0006 82.2935 74.9046 82.5275 74.7126 82.6955C74.5206 82.8515 74.2386 82.9295 73.8666 82.9295ZM77.5206 96.7715V89.2115V84.5495H78.9966L78.9066 86.9435H79.1766C79.3206 86.4155 79.5186 85.9595 79.7706 85.5755C80.0346 85.1795 80.3706 84.8735 80.7786 84.6575C81.1866 84.4295 81.6786 84.3155 82.2546 84.3155C83.1066 84.3155 83.8146 84.5315 84.3786 84.9635C84.9546 85.3835 85.3866 85.9655 85.6746 86.7095C85.9626 87.4415 86.1066 88.2755 86.1066 89.2115C86.1066 90.1475 85.9626 90.9815 85.6746 91.7135C85.3866 92.4455 84.9606 93.0275 84.3966 93.4595C83.8446 93.8795 83.1666 94.0895 82.3626 94.0895C81.7146 94.0895 81.1746 93.9575 80.7426 93.6935C80.3226 93.4175 79.9866 93.0575 79.7346 92.6135C79.4826 92.1695 79.2846 91.7075 79.1406 91.2275H78.8346C78.9066 91.5515 78.9666 91.8875 79.0146 92.2355C79.0626 92.5835 79.0986 92.9315 79.1226 93.2795C79.1586 93.6155 79.1766 93.9395 79.1766 94.2515V96.7715H77.5206ZM81.9486 92.6675C82.4766 92.6675 82.9206 92.5175 83.2806 92.2175C83.6406 91.9055 83.9166 91.4855 84.1086 90.9575C84.3006 90.4295 84.3966 89.8355 84.3966 89.1755C84.3966 88.4675 84.2946 87.8615 84.0906 87.3575C83.8986 86.8535 83.6226 86.4635 83.2626 86.1875C82.9026 85.8995 82.4646 85.7555 81.9486 85.7555C81.5046 85.7555 81.1086 85.8575 80.7606 86.0615C80.4246 86.2535 80.1366 86.5175 79.8966 86.8535C79.6566 87.1775 79.4706 87.5375 79.3386 87.9335C79.2186 88.3175 79.1586 88.7015 79.1586 89.0855V89.3015C79.1586 89.5415 79.1946 89.8115 79.2666 90.1115C79.3386 90.3995 79.4466 90.6935 79.5906 90.9935C79.7346 91.2935 79.9146 91.5695 80.1306 91.8215C80.3586 92.0735 80.6226 92.2775 80.9226 92.4335C81.2226 92.5895 81.5646 92.6675 81.9486 92.6675ZM91.3698 94.0355C90.5058 94.0355 89.8638 93.8015 89.4438 93.3335C89.0238 92.8655 88.8138 92.1515 88.8138 91.1915V85.9175H87.4098L87.4278 84.5495H88.3098C88.6098 84.5495 88.8258 84.4955 88.9578 84.3875C89.1018 84.2795 89.1858 84.0995 89.2098 83.8475L89.3898 82.4435H90.3978V84.5495H93.0798V85.9355H90.3978V91.1555C90.3978 91.6355 90.5058 91.9835 90.7218 92.1995C90.9498 92.4035 91.2738 92.5055 91.6938 92.5055C91.9218 92.5055 92.1558 92.4755 92.3958 92.4155C92.6478 92.3555 92.8938 92.2355 93.1338 92.0555V93.6935C92.7858 93.8255 92.4618 93.9155 92.1618 93.9635C91.8738 94.0115 91.6098 94.0355 91.3698 94.0355Z" fill="#F8F9FA"/>
<defs>
<clipPath id="clip0_3398_802">
<rect width="56" height="56" fill="white" transform="translate(24 12.8555)"/>
</clipPath>
</defs>
</svg>
